<svg width="242" height="242" viewBox="0 0 242 242" fill="none" xmlns="http://www.w3.org/2000/svg">
<g opacity="0.33">
<circle cx="121" cy="121" r="121" fill="#E9F4FF"/>
<circle cx="121.672" cy="121.672" r="90.75" fill="#E9F4FF"/>
<circle cx="121" cy="122.345" r="51.0889" fill="#EFEFEF"/>
</g>
<g opacity="0.8">
<g opacity="0.4">
<path d="M130 56.18V33L118 21H102C99.8 21 98.02 22.8 98.02 25L98 57C98 59.2 99.78 61 101.98 61H126C126.9 61 127.7 60.7 128.38 60.2L119.52 51.34C117.92 52.38 116.04 53 114 53C108.48 53 104 48.52 104 43C104 37.48 108.48 33 114 33C119.52 33 124 37.48 124 43C124 45.04 123.38 46.92 122.34 48.5L130 56.18ZM108 43C108 46.32 110.68 49 114 49C117.32 49 120 46.32 120 43C120 39.68 117.32 37 114 37C110.68 37 108 39.68 108 43Z" fill="black"/>
</g>
<g opacity="0.4">
<path d="M160.248 37.6952C158.86 36.7085 158.521 34.7968 159.492 33.3939C160.464 32.0064 162.391 31.6673 163.794 32.6385C165.181 33.6252 165.52 35.5368 164.549 36.9398C163.562 38.3273 161.651 38.6664 160.248 37.6952ZM176.667 58.2918H165.767C163.485 58.2918 161.543 56.6268 161.204 54.376L158.167 39.7918H155.083L158.151 54.8385C158.737 58.6002 161.975 61.3752 165.782 61.3752H176.667V58.2918ZM177.021 52.1252H169.498L167.91 45.8043C170.346 47.1764 172.967 48.1785 175.85 47.6852V44.4014C173.337 44.8793 170.546 43.9852 168.619 42.4743L166.091 40.5164C165.736 40.2389 165.335 40.0539 164.919 39.9306C164.426 39.7918 163.902 39.7456 163.393 39.8381H163.362C161.466 40.1773 160.202 41.981 160.525 43.8618L162.607 52.9885C163.038 55.1777 164.935 56.7502 167.155 56.7502H177.715L183.604 61.3752L185.917 59.0627L177.021 52.1252Z" fill="black"/>
</g>
<g opacity="0.4">
<path d="M60.3334 52.3333V51H51.0134L51.0001 56.3333C51.0001 57.8133 52.1867 59 53.6667 59H72.3334C73.8134 59 75.0001 57.8133 75.0001 56.3333V51H65.6667V52.3333H60.3334ZM73.6667 40.3333H68.3201V37.6667L65.6534 35H60.3201L57.6534 37.6667V40.3333H52.3334C50.8667 40.3333 49.6667 41.5333 49.6667 43V47C49.6667 48.48 50.8534 49.6667 52.3334 49.6667H60.3334V47H65.6667V49.6667H73.6667C75.1334 49.6667 76.3334 48.4667 76.3334 47V43C76.3334 41.5333 75.1334 40.3333 73.6667 40.3333ZM65.6667 40.3333H60.3334V37.6667H65.6667V40.3333Z" fill="black"/>
</g>
<g opacity="0.4">
<path d="M209.125 82.375H206.375V72.75H203.625V82.375H200.875V72.75H198.125V82.375C198.125 85.29 200.408 87.655 203.281 87.8337V100.25H206.719V87.8337C209.592 87.655 211.875 85.29 211.875 82.375V72.75H209.125V82.375ZM216 78.25V89.25H219.438V100.25H222.875V72.75C219.08 72.75 216 75.83 216 78.25Z" fill="black"/>
</g>
<g opacity="0.4">
<path d="M213.5 134.5H210.5V137.5H213.5V134.5ZM219.5 134.5H216.5V137.5H219.5V134.5ZM225.5 134.5H222.5V137.5H225.5V134.5ZM228.5 124H227V121H224V124H212V121H209V124H207.5C205.835 124 204.515 125.35 204.515 127L204.5 148C204.5 149.65 205.835 151 207.5 151H228.5C230.15 151 231.5 149.65 231.5 148V127C231.5 125.35 230.15 124 228.5 124ZM228.5 148H207.5V131.5H228.5V148Z" fill="black"/>
</g>
<g opacity="0.4">
<path d="M30.5001 72.4167C23.8301 72.4167 18.4167 77.8301 18.4167 84.5001C18.4167 91.1701 23.8301 96.5834 30.5001 96.5834C37.1701 96.5834 42.5834 91.1701 42.5834 84.5001C42.5834 77.8301 37.1701 72.4167 30.5001 72.4167ZM29.2917 94.0822C24.5188 93.4901 20.8334 89.4301 20.8334 84.5001C20.8334 83.7509 20.9301 83.038 21.0872 82.3372L26.8751 88.1251V89.3334C26.8751 90.6626 27.9626 91.7501 29.2917 91.7501V94.0822ZM37.6292 91.013C37.3151 90.0342 36.4209 89.3334 35.3334 89.3334H34.1251V85.7084C34.1251 85.0438 33.5813 84.5001 32.9167 84.5001H25.6667V82.0834H28.0834C28.748 82.0834 29.2917 81.5397 29.2917 80.8751V78.4584H31.7084C33.0376 78.4584 34.1251 77.3709 34.1251 76.0417V75.5463C37.6655 76.9842 40.1667 80.4522 40.1667 84.5001C40.1667 87.0134 39.2001 89.2972 37.6292 91.013Z" fill="black"/>
</g>
<g opacity="0.4">
<path d="M33.625 127.75H30.375V122.875C30.375 121.981 29.6438 121.25 28.75 121.25H22.25C21.3562 121.25 20.625 121.981 20.625 122.875V127.75H17.375C15.5875 127.75 14.125 129.213 14.125 131V148.875C14.125 150.663 15.5875 152.125 17.375 152.125C17.375 153.019 18.1063 153.75 19 153.75C19.8938 153.75 20.625 153.019 20.625 152.125H30.375C30.375 153.019 31.1063 153.75 32 153.75C32.8937 153.75 33.625 153.019 33.625 152.125C35.4125 152.125 36.875 150.663 36.875 148.875V131C36.875 129.213 35.4125 127.75 33.625 127.75ZM21.4375 147.25H19V132.625H21.4375V147.25ZM26.7188 147.25H24.2812V132.625H26.7188V147.25ZM27.9375 127.75H23.0625V123.688H27.9375V127.75ZM32 147.25H29.5625V132.625H32V147.25Z" fill="black"/>
</g>
<path d="M151.083 128H141.917V141.75H128.167V150.917H151.083V128ZM96.0833 114.25H109.833V105.083H86.9166V128H96.0833V114.25ZM160.25 86.75H77.7499C72.7083 86.75 68.5833 90.875 68.5833 95.9167V160.083C68.5833 165.125 72.7083 169.25 77.7499 169.25H160.25C165.292 169.25 169.417 165.125 169.417 160.083V95.9167C169.417 90.875 165.292 86.75 160.25 86.75ZM160.25 160.129H77.7499V95.8708H160.25V160.129Z" fill="#2F2E41"/>
</g>
</svg>
