<svg width="242" height="242" viewBox="0 0 242 242" fill="none" xmlns="http://www.w3.org/2000/svg">
<g opacity="0.33">
<circle cx="121" cy="121" r="121" fill="#E9F4FF"/>
<circle cx="121.672" cy="121.672" r="90.75" fill="#E9F4FF"/>
<circle cx="121" cy="122.345" r="51.0889" fill="#EFEFEF"/>
</g>
<g opacity="0.8">
<path d="M130.917 119.5L121.5 128.917L112.083 119.5L121.5 110.083L130.917 119.5ZM121.5 91.2502L131.482 101.232L143.252 89.461L121.5 67.7085L99.7474 89.461L111.518 101.232L121.5 91.2502ZM93.2499 119.5L103.232 109.518L91.4607 97.7477L69.7083 119.5L91.4607 141.253L103.232 129.482L93.2499 119.5ZM149.75 119.5L139.768 129.482L151.539 141.253L173.292 119.5L151.539 97.7477L139.768 109.518L149.75 119.5ZM121.5 147.75L111.518 137.768L99.7474 149.539L121.5 171.292L143.252 149.539L131.482 137.768L121.5 147.75Z" fill="#2F2E41"/>
<path d="M225.729 114.708H223.042V107.542C223.042 105.571 221.429 103.958 219.458 103.958H212.292V101.271C212.292 98.7983 210.285 96.7916 207.812 96.7916C205.34 96.7916 203.333 98.7983 203.333 101.271V103.958H196.167C194.196 103.958 192.601 105.571 192.601 107.542V114.35H195.271C197.94 114.35 200.108 116.518 200.108 119.187C200.108 121.857 197.94 124.025 195.271 124.025H192.583V130.833C192.583 132.804 194.196 134.417 196.167 134.417H202.975V131.729C202.975 129.06 205.143 126.892 207.812 126.892C210.482 126.892 212.65 129.06 212.65 131.729V134.417H219.458C221.429 134.417 223.042 132.804 223.042 130.833V123.667H225.729C228.202 123.667 230.208 121.66 230.208 119.187C230.208 116.715 228.202 114.708 225.729 114.708Z" fill="black" fill-opacity="0.4"/>
<path d="M130.75 45V29.25H127.25V17H139.5L136 25.75H139.5L130.75 45ZM127.25 32.75V45H108C106.075 45 104.5 43.425 104.5 41.5V36.25C104.5 34.325 106.075 32.75 108 32.75H127.25ZM111.938 37.5625H109.312V40.1875H111.938V37.5625ZM123.75 17V29.25H108C106.075 29.25 104.5 27.675 104.5 25.75V20.5C104.5 18.575 106.075 17 108 17H123.75ZM111.938 21.8125H109.312V24.4375H111.938V21.8125Z" fill="black" fill-opacity="0.4"/>
<path fill-rule="evenodd" clip-rule="evenodd" d="M65 161C59.48 161 55 165.48 55 171C55 176.52 59.48 181 65 181C70.52 181 75 176.52 75 171C75 165.48 70.52 161 65 161ZM69.9 174.49L68.5 175.89C68.3 176.09 67.99 176.09 67.79 175.89L64.38 172.48C63.16 172.91 61.74 172.65 60.76 171.67C59.65 170.56 59.46 168.88 60.17 167.57L62.52 169.92L63.93 168.51L61.58 166.17C62.9 165.46 64.57 165.65 65.68 166.76C66.66 167.74 66.92 169.16 66.49 170.38L69.9 173.79C70.09 173.98 70.09 174.3 69.9 174.49Z" fill="black" fill-opacity="0.3"/>
<path d="M44.2083 102.875H36.0225C35.2 100.603 33.0458 98.9584 30.5 98.9584C27.9542 98.9584 25.8 100.603 24.9775 102.875H16.7917C16.5175 102.875 16.2629 102.895 16.0083 102.953C15.2446 103.11 14.5592 103.502 14.0304 104.03C13.6779 104.383 13.3842 104.814 13.1883 105.284C12.9925 105.734 12.875 106.243 12.875 106.792V134.208C12.875 134.737 12.9925 135.266 13.1883 135.736C13.3842 136.206 13.6779 136.617 14.0304 136.989C14.5592 137.518 15.2446 137.91 16.0083 138.066C16.2629 138.105 16.5175 138.125 16.7917 138.125H44.2083C46.3625 138.125 48.125 136.363 48.125 134.208V106.792C48.125 104.638 46.3625 102.875 44.2083 102.875ZM28.5417 124.75L25.7804 127.53L18.75 120.5L25.7804 113.47L28.5417 116.25L24.2921 120.5L28.5417 124.75ZM30.5 105.323C29.6971 105.323 29.0313 104.657 29.0313 103.854C29.0313 103.051 29.6971 102.385 30.5 102.385C31.3029 102.385 31.9688 103.051 31.9688 103.854C31.9688 104.657 31.3029 105.323 30.5 105.323ZM35.2196 127.53L32.4583 124.75L36.7079 120.5L32.4583 116.25L35.2196 113.47L42.25 120.5L35.2196 127.53Z" fill="black" fill-opacity="0.4"/>
<path d="M192.55 164.22L191.16 162.54C190.88 162.21 190.47 162 190 162H178C177.53 162 177.12 162.21 176.85 162.55L175.46 164.22C175.17 164.57 175 165.01 175 165.5V178C175 179.1 175.89 180 177 180H191C192.1 180 193 179.1 193 178V165.5C193 165.01 192.83 164.57 192.55 164.22ZM184 168.5L189.5 174H186V176H182V174H178.5L184 168.5ZM177.12 164L177.94 163H189.94L190.87 164H177.12Z" fill="black" fill-opacity="0.3"/>
<path d="M193.417 68.6666V66.0833L182.437 59.6249V52.5208C182.437 51.4487 181.572 50.5833 180.5 50.5833C179.428 50.5833 178.562 51.4487 178.562 52.5208V59.6249L167.583 66.0833V68.6666L178.562 65.4374V72.5416L175.333 74.4791V76.4166L180.5 75.1249L185.667 76.4166V74.4791L182.437 72.5416V65.4374L193.417 68.6666Z" fill="black" fill-opacity="0.3"/>
<path d="M65 53C59.48 53 55 57.48 55 63C55 68.52 59.48 73 65 73C70.52 73 75 68.52 75 63C75 57.48 70.52 53 65 53ZM69.5 67H61C59.34 67 58 65.66 58 64C58 62.34 59.34 61 61 61L61.14 61.01C61.58 59.28 63.13 58 65 58C67.21 58 69 59.79 69 62H69.5C70.88 62 72 63.12 72 64.5C72 65.88 70.88 67 69.5 67Z" fill="black" fill-opacity="0.3"/>
<path d="M117.417 222.5C115.308 222.5 113.603 224.225 113.603 226.333C113.603 228.442 115.308 230.167 117.417 230.167C119.525 230.167 121.25 228.442 121.25 226.333C121.25 224.225 119.525 222.5 117.417 222.5ZM105.917 191.833V195.667H109.75L116.65 210.214L114.063 214.91C113.756 215.447 113.583 216.079 113.583 216.75C113.583 218.858 115.308 220.583 117.417 220.583H140.417V216.75H118.222C117.953 216.75 117.743 216.539 117.743 216.271L117.8 216.041L119.525 212.917H133.804C135.242 212.917 136.507 212.131 137.158 210.943L144.02 198.503C144.173 198.235 144.25 197.909 144.25 197.583C144.25 196.529 143.388 195.667 142.333 195.667H113.986L112.184 191.833H105.917ZM136.583 222.5C134.475 222.5 132.769 224.225 132.769 226.333C132.769 228.442 134.475 230.167 136.583 230.167C138.692 230.167 140.417 228.442 140.417 226.333C140.417 224.225 138.692 222.5 136.583 222.5Z" fill="black" fill-opacity="0.4"/>
</g>
</svg>
