<svg width="242" height="242" viewBox="0 0 242 242" fill="none" xmlns="http://www.w3.org/2000/svg">
<g opacity="0.48">
<circle cx="121" cy="121" r="121" fill="#E9F4FF"/>
<circle cx="121.672" cy="121.672" r="90.75" fill="#D4E6F8"/>
<circle cx="121" cy="122.345" r="51.0889" fill="white"/>
</g>
<path d="M131.208 119.792L121.792 129.208L112.375 119.792L121.792 110.375L131.208 119.792ZM121.792 91.5417L131.773 101.523L143.544 89.7525L121.792 68L100.039 89.7525L111.81 101.523L121.792 91.5417ZM93.5417 119.792L103.523 109.81L91.7525 98.0392L70 119.792L91.7525 141.544L103.523 129.773L93.5417 119.792ZM150.042 119.792L140.06 129.773L151.831 141.544L173.583 119.792L151.831 98.0392L140.06 109.81L150.042 119.792ZM121.792 148.042L111.81 138.06L100.039 149.831L121.792 171.583L143.544 149.831L131.773 138.06L121.792 148.042Z" fill="#2F2E41" fill-opacity="0.8"/>
<g style="mix-blend-mode:multiply">
<path d="M124.712 36.1375L126.462 33.1125C126.575 32.925 126.525 32.6875 126.362 32.55L124.512 31.1C124.55 30.825 124.575 30.5375 124.575 30.25C124.575 29.9625 124.55 29.675 124.512 29.3875L126.362 27.9375C126.525 27.8 126.575 27.5625 126.462 27.375L124.712 24.35C124.6 24.1625 124.375 24.0875 124.175 24.1625L122 25.0375C121.55 24.6875 121.062 24.4 120.525 24.175L120.2 21.8625C120.162 21.6625 119.975 21.5 119.762 21.5H116.262C116.05 21.5 115.862 21.6625 115.825 21.875L115.5 24.1875C114.975 24.4125 114.475 24.7 114.025 25.05L111.85 24.175C111.65 24.1 111.425 24.175 111.312 24.3625L109.562 27.3875C109.45 27.575 109.5 27.8125 109.662 27.95L111.512 29.4C111.475 29.675 111.45 29.9625 111.45 30.25C111.45 30.5375 111.475 30.825 111.512 31.1125L109.662 32.5625C109.5 32.7 109.45 32.9375 109.562 33.125L111.312 36.15C111.425 36.3375 111.65 36.4125 111.85 36.3375L114.025 35.4625C114.475 35.8125 114.962 36.1 115.5 36.325L115.825 38.6375C115.862 38.8375 116.05 39 116.262 39H119.762C119.975 39 120.162 38.8375 120.2 38.625L120.525 36.3125C121.05 36.0875 121.55 35.8 122 35.45L124.175 36.325C124.375 36.4 124.6 36.325 124.712 36.1375ZM118.012 32.75C116.637 32.75 115.512 31.625 115.512 30.25C115.512 28.875 116.637 27.75 118.012 27.75C119.387 27.75 120.512 28.875 120.512 30.25C120.512 31.625 119.387 32.75 118.012 32.75Z" fill="black" fill-opacity="0.2"/>
<path d="M134.4 42.3375L133.2 41.4125C133.225 41.2375 133.25 41.05 133.25 40.8625C133.25 40.675 133.237 40.4875 133.2 40.3125L134.387 39.3875C134.487 39.3 134.525 39.15 134.45 39.025L133.325 37.0875C133.262 36.9625 133.112 36.925 132.975 36.9625L131.587 37.525C131.3 37.3 130.987 37.1125 130.637 36.975L130.425 35.5C130.412 35.35 130.287 35.25 130.162 35.25H127.925C127.787 35.25 127.662 35.35 127.65 35.4875L127.437 36.9625C127.1 37.1125 126.775 37.2875 126.487 37.5125L125.1 36.95C124.975 36.9 124.825 36.95 124.75 37.075L123.625 39.0125C123.562 39.1375 123.575 39.2875 123.687 39.375L124.875 40.3C124.85 40.475 124.837 40.6625 124.837 40.85C124.837 41.0375 124.85 41.225 124.875 41.4L123.687 42.325C123.587 42.4125 123.55 42.5625 123.625 42.6875L124.75 44.625C124.812 44.75 124.962 44.7875 125.1 44.75L126.487 44.1875C126.775 44.4125 127.087 44.6 127.437 44.7375L127.65 46.2125C127.675 46.35 127.787 46.45 127.925 46.45H130.162C130.3 46.45 130.425 46.35 130.437 46.2125L130.65 44.7375C130.987 44.5875 131.312 44.4125 131.587 44.1875L132.987 44.75C133.112 44.8 133.262 44.75 133.337 44.625L134.462 42.6875C134.537 42.575 134.5 42.425 134.4 42.3375ZM129.037 42.5375C128.112 42.5375 127.35 41.7875 127.35 40.85C127.35 39.9125 128.1 39.1625 129.037 39.1625C129.975 39.1625 130.725 39.9125 130.725 40.85C130.725 41.7875 129.962 42.5375 129.037 42.5375Z" fill="black" fill-opacity="0.2"/>
</g>
<g style="mix-blend-mode:multiply">
<path d="M197.729 174.708H195.042V167.542C195.042 165.571 193.429 163.958 191.458 163.958H184.292V161.271C184.292 158.798 182.285 156.792 179.812 156.792C177.34 156.792 175.333 158.798 175.333 161.271V163.958H168.167C166.196 163.958 164.601 165.571 164.601 167.542V174.35H167.271C169.94 174.35 172.108 176.518 172.108 179.187C172.108 181.857 169.94 184.025 167.271 184.025H164.583V190.833C164.583 192.804 166.196 194.417 168.167 194.417H174.975V191.729C174.975 189.06 177.143 186.892 179.812 186.892C182.482 186.892 184.65 189.06 184.65 191.729V194.417H191.458C193.429 194.417 195.042 192.804 195.042 190.833V183.667H197.729C200.202 183.667 202.208 181.66 202.208 179.187C202.208 176.715 200.202 174.708 197.729 174.708Z" fill="black" fill-opacity="0.4"/>
</g>
<g style="mix-blend-mode:multiply">
<path d="M190.875 80.5V63.625H187.125V50.5H200.25L196.5 59.875H200.25L190.875 80.5ZM187.125 67.375V80.5H166.5C164.437 80.5 162.75 78.8125 162.75 76.75V71.125C162.75 69.0625 164.437 67.375 166.5 67.375H187.125ZM170.719 72.5312H167.906V75.3438H170.719V72.5312ZM183.375 50.5V63.625H166.5C164.437 63.625 162.75 61.9375 162.75 59.875V54.25C162.75 52.1875 164.437 50.5 166.5 50.5H183.375ZM170.719 55.6562H167.906V58.4688H170.719V55.6562Z" fill="black" fill-opacity="0.4"/>
</g>
<g style="mix-blend-mode:multiply">
<path fill-rule="evenodd" clip-rule="evenodd" d="M210 110C204.48 110 200 114.48 200 120C200 125.52 204.48 130 210 130C215.52 130 220 125.52 220 120C220 114.48 215.52 110 210 110ZM214.9 123.49L213.5 124.89C213.3 125.09 212.99 125.09 212.79 124.89L209.38 121.48C208.16 121.91 206.74 121.65 205.76 120.67C204.65 119.56 204.46 117.88 205.17 116.57L207.52 118.92L208.93 117.51L206.58 115.17C207.9 114.46 209.57 114.65 210.68 115.76C211.66 116.74 211.92 118.16 211.49 119.38L214.9 122.79C215.09 122.98 215.09 123.3 214.9 123.49Z" fill="black" fill-opacity="0.2"/>
</g>
<g style="mix-blend-mode:multiply" clip-path="url(#clip0)">
<path d="M74.2083 46.8749H66.0225C65.2 44.6033 63.0458 42.9583 60.5 42.9583C57.9542 42.9583 55.8 44.6033 54.9775 46.8749H46.7917C46.5175 46.8749 46.2629 46.8945 46.0083 46.9533C45.2446 47.1099 44.5592 47.5016 44.0304 48.0303C43.6779 48.3828 43.3842 48.8137 43.1883 49.2837C42.9925 49.7341 42.875 50.2433 42.875 50.7916V78.2083C42.875 78.737 42.9925 79.2658 43.1883 79.7358C43.3842 80.2058 43.6779 80.617 44.0304 80.9891C44.5592 81.5178 45.2446 81.9095 46.0083 82.0662C46.2629 82.1053 46.5175 82.1249 46.7917 82.1249H74.2083C76.3625 82.1249 78.125 80.3624 78.125 78.2083V50.7916C78.125 48.6374 76.3625 46.8749 74.2083 46.8749ZM58.5417 68.7495L55.7804 71.5303L48.75 64.4999L55.7804 57.4695L58.5417 60.2503L54.2921 64.4999L58.5417 68.7495ZM60.5 49.3228C59.6971 49.3228 59.0313 48.657 59.0313 47.8541C59.0313 47.0512 59.6971 46.3853 60.5 46.3853C61.3029 46.3853 61.9688 47.0512 61.9688 47.8541C61.9688 48.657 61.3029 49.3228 60.5 49.3228ZM65.2196 71.5303L62.4583 68.7495L66.7079 64.4999L62.4583 60.2503L65.2196 57.4695L72.25 64.4999L65.2196 71.5303Z" fill="black" fill-opacity="0.4"/>
</g>
<g style="mix-blend-mode:multiply">
<path d="M130.55 202.22L129.16 200.54C128.88 200.21 128.47 200 128 200H116C115.53 200 115.12 200.21 114.85 200.55L113.46 202.22C113.17 202.57 113 203.01 113 203.5V216C113 217.1 113.89 218 115 218H129C130.1 218 131 217.1 131 216V203.5C131 203.01 130.83 202.57 130.55 202.22ZM122 206.5L127.5 212H124V214H120V212H116.5L122 206.5ZM115.12 202L115.94 201H127.94L128.87 202H115.12Z" fill="black" fill-opacity="0.2"/>
</g>
<g style="mix-blend-mode:multiply">
<path d="M33 109C27.48 109 23 113.48 23 119C23 124.52 27.48 129 33 129C38.52 129 43 124.52 43 119C43 113.48 38.52 109 33 109ZM37.5 123H29C27.34 123 26 121.66 26 120C26 118.34 27.34 117 29 117L29.14 117.01C29.58 115.28 31.13 114 33 114C35.21 114 37 115.79 37 118H37.5C38.88 118 40 119.12 40 120.5C40 121.88 38.88 123 37.5 123Z" fill="black" fill-opacity="0.2"/>
</g>
<g style="mix-blend-mode:multiply">
<path d="M52.8333 187C50.8166 187 49.1849 188.65 49.1849 190.667C49.1849 192.683 50.8166 194.333 52.8333 194.333C54.8499 194.333 56.4999 192.683 56.4999 190.667C56.4999 188.65 54.8499 187 52.8333 187ZM41.8333 157.667V161.333H45.4999L52.0999 175.248L49.6249 179.74C49.3316 180.253 49.1666 180.858 49.1666 181.5C49.1666 183.517 50.8166 185.167 52.8333 185.167H74.8333V181.5H53.6033C53.3466 181.5 53.1449 181.298 53.1449 181.042L53.1999 180.822L54.8499 177.833H68.5083C69.8833 177.833 71.0933 177.082 71.7166 175.945L78.2799 164.047C78.4266 163.79 78.4999 163.478 78.4999 163.167C78.4999 162.158 77.6749 161.333 76.6666 161.333H49.5516L47.8283 157.667H41.8333ZM71.1666 187C69.1499 187 67.5183 188.65 67.5183 190.667C67.5183 192.683 69.1499 194.333 71.1666 194.333C73.1833 194.333 74.8333 192.683 74.8333 190.667C74.8333 188.65 73.1833 187 71.1666 187Z" fill="black" fill-opacity="0.4"/>
</g>
<defs>
<clipPath id="clip0">
<rect width="47" height="47" fill="white" transform="translate(39 41)"/>
</clipPath>
</defs>
</svg>
