<svg width="242" height="242" viewBox="0 0 242 242" fill="none" xmlns="http://www.w3.org/2000/svg">
<g opacity="0.33">
<circle cx="121" cy="121" r="121" fill="#E9F4FF"/>
<circle cx="121.672" cy="121.672" r="90.75" fill="#E9F4FF"/>
<circle cx="121" cy="122.345" r="51.0889" fill="#EFEFEF"/>
</g>
<g opacity="0.3">
<path d="M190.6 69.8C193.693 69.8 196.2 67.2928 196.2 64.2C196.2 61.1072 193.693 58.6 190.6 58.6C187.507 58.6 185 61.1072 185 64.2C185 67.2928 187.507 69.8 190.6 69.8Z" fill="black"/>
<path d="M203.9 74C205.833 74 207.4 72.433 207.4 70.5C207.4 68.567 205.833 67 203.9 67C201.967 67 200.4 68.567 200.4 70.5C200.4 72.433 201.967 74 203.9 74Z" fill="black"/>
<path d="M204.6 62.8C209.239 62.8 213 59.0392 213 54.4C213 49.7608 209.239 46 204.6 46C199.961 46 196.2 49.7608 196.2 54.4C196.2 59.0392 199.961 62.8 204.6 62.8Z" fill="black"/>
</g>
<g opacity="0.4">
<path fill-rule="evenodd" clip-rule="evenodd" d="M46.75 191.75L52 186.605C51.3175 186.535 50.81 186.5 50.25 186.5C45.5775 186.5 36.25 188.845 36.25 193.5V197H52L46.75 191.75ZM50.25 183C54.1175 183 57.25 179.868 57.25 176C57.25 172.132 54.1175 169 50.25 169C46.3825 169 43.25 172.132 43.25 176C43.25 179.868 46.3825 183 50.25 183Z" fill="black"/>
<path fill-rule="evenodd" clip-rule="evenodd" d="M58.0725 197.875L52 191.75L54.45 189.283L58.0725 192.923L67.05 183.875L69.5 186.342L58.0725 197.875Z" fill="black"/>
</g>
<g opacity="0.3">
<path d="M208.875 173.375H192.625C190.838 173.375 189.375 174.838 189.375 176.625V192.875C189.375 194.663 190.838 196.125 192.625 196.125H208.875C210.663 196.125 212.125 194.663 212.125 192.875V176.625C212.125 174.838 210.663 173.375 208.875 173.375ZM208.875 176.625V179.875H192.625V176.625H208.875ZM199.125 186.375V183.125H202.375V186.375H199.125ZM202.375 189.625V192.875H199.125V189.625H202.375ZM195.875 186.375H192.625V183.125H195.875V186.375ZM205.625 183.125H208.875V186.375H205.625V183.125ZM192.625 189.625H195.875V192.875H192.625V189.625ZM205.625 192.875V189.625H208.875V192.875H205.625ZM187.75 189.625H186.125C184.337 189.625 182.875 188.163 182.875 186.375V170.125C182.875 168.337 184.337 166.875 186.125 166.875H202.375C204.163 166.875 205.625 168.337 205.625 170.125V171.75H202.375V170.125H186.125V186.375H187.75V189.625Z" fill="black"/>
</g>
<g opacity="0.4">
<path d="M59.5 48H38.5C36.85 48 35.5 49.35 35.5 51V72C35.5 73.65 36.85 75 38.5 75H44.5L49 79.5L53.5 75H59.5C61.15 75 62.5 73.65 62.5 72V51C62.5 49.35 61.15 48 59.5 48ZM51.82 64.32L49 70.5L46.18 64.32L40 61.5L46.18 58.68L49 52.5L51.82 58.68L58 61.5L51.82 64.32Z" fill="black"/>
</g>
<g opacity="0.8">
<path d="M84.3333 91.5H166.833V82.3334H84.3333C79.2917 82.3334 75.1667 86.4584 75.1667 91.5V141.917H66V155.667H130.167V141.917H84.3333V91.5ZM171.417 100.667H143.917C141.396 100.667 139.333 102.729 139.333 105.25V151.083C139.333 153.604 141.396 155.667 143.917 155.667H171.417C173.938 155.667 176 153.604 176 151.083V105.25C176 102.729 173.938 100.667 171.417 100.667ZM166.833 141.917H148.5V109.833H166.833V141.917Z" fill="#2F2E41"/>
</g>
<g opacity="0.3">
<path d="M223.25 128H222.065L221.645 127.595C223.115 125.885 224 123.665 224 121.25C224 115.865 219.635 111.5 214.25 111.5C208.865 111.5 204.5 115.865 204.5 121.25C204.5 126.635 208.865 131 214.25 131C216.665 131 218.885 130.115 220.595 128.645L221 129.065V130.25L228.5 137.735L230.735 135.5L223.25 128ZM214.25 128C210.515 128 207.5 124.985 207.5 121.25C207.5 117.515 210.515 114.5 214.25 114.5C217.985 114.5 221 117.515 221 121.25C221 124.985 217.985 128 214.25 128Z" fill="black"/>
</g>
<g opacity="0.3">
<path d="M9.5 127H21.5V123H9.5V127ZM9.5 135H21.5V131H9.5V135ZM9.5 119H21.5V115H9.5V119ZM9.5 107V111H21.5V107H9.5ZM24.5 107H36.5V135H24.5V107Z" fill="black"/>
</g>
</svg>
