<svg width="242" height="242" viewBox="0 0 242 242" fill="none" xmlns="http://www.w3.org/2000/svg">
<g opacity="0.48">
<circle cx="121" cy="121" r="121" fill="#E9F4FF"/>
<circle cx="121.672" cy="121.672" r="90.75" fill="#D4E6F8"/>
<circle cx="121" cy="122.345" r="51.0889" fill="white"/>
</g>
<g style="mix-blend-mode:multiply" opacity="0.3">
<path d="M185.6 70.8C188.693 70.8 191.2 68.2928 191.2 65.2C191.2 62.1072 188.693 59.6 185.6 59.6C182.507 59.6 180 62.1072 180 65.2C180 68.2928 182.507 70.8 185.6 70.8Z" fill="black"/>
<path d="M198.9 75C200.833 75 202.4 73.433 202.4 71.5C202.4 69.567 200.833 68 198.9 68C196.967 68 195.4 69.567 195.4 71.5C195.4 73.433 196.967 75 198.9 75Z" fill="black"/>
<path d="M199.6 63.8C204.239 63.8 208 60.0392 208 55.4C208 50.7608 204.239 47 199.6 47C194.961 47 191.2 50.7608 191.2 55.4C191.2 60.0392 194.961 63.8 199.6 63.8Z" fill="black"/>
</g>
<g style="mix-blend-mode:multiply" opacity="0.4">
<path fill-rule="evenodd" clip-rule="evenodd" d="M48.75 189.75L54 184.605C53.3175 184.535 52.81 184.5 52.25 184.5C47.5775 184.5 38.25 186.845 38.25 191.5V195H54L48.75 189.75ZM52.25 181C56.1175 181 59.25 177.868 59.25 174C59.25 170.132 56.1175 167 52.25 167C48.3825 167 45.25 170.132 45.25 174C45.25 177.868 48.3825 181 52.25 181Z" fill="black"/>
<path fill-rule="evenodd" clip-rule="evenodd" d="M60.0725 195.875L54 189.75L56.45 187.283L60.0725 190.923L69.05 181.875L71.5 184.342L60.0725 195.875Z" fill="black"/>
</g>
<g style="mix-blend-mode:multiply" opacity="0.3">
<path d="M203.875 171.375H187.625C185.838 171.375 184.375 172.838 184.375 174.625V190.875C184.375 192.663 185.838 194.125 187.625 194.125H203.875C205.663 194.125 207.125 192.663 207.125 190.875V174.625C207.125 172.838 205.663 171.375 203.875 171.375ZM203.875 174.625V177.875H187.625V174.625H203.875ZM194.125 184.375V181.125H197.375V184.375H194.125ZM197.375 187.625V190.875H194.125V187.625H197.375ZM190.875 184.375H187.625V181.125H190.875V184.375ZM200.625 181.125H203.875V184.375H200.625V181.125ZM187.625 187.625H190.875V190.875H187.625V187.625ZM200.625 190.875V187.625H203.875V190.875H200.625ZM182.75 187.625H181.125C179.337 187.625 177.875 186.163 177.875 184.375V168.125C177.875 166.337 179.337 164.875 181.125 164.875H197.375C199.163 164.875 200.625 166.337 200.625 168.125V169.75H197.375V168.125H181.125V184.375H182.75V187.625Z" fill="black"/>
</g>
<g style="mix-blend-mode:multiply" opacity="0.4">
<path d="M61.5 49H40.5C38.85 49 37.5 50.35 37.5 52V73C37.5 74.65 38.85 76 40.5 76H46.5L51 80.5L55.5 76H61.5C63.15 76 64.5 74.65 64.5 73V52C64.5 50.35 63.15 49 61.5 49ZM53.82 65.32L51 71.5L48.18 65.32L42 62.5L48.18 59.68L51 53.5L53.82 59.68L60 62.5L53.82 65.32Z" fill="black"/>
</g>
<g opacity="0.8">
<path d="M85.3333 93.5H167.833V84.3334H85.3333C80.2917 84.3334 76.1667 88.4584 76.1667 93.5V143.917H67V157.667H131.167V143.917H85.3333V93.5ZM172.417 102.667H144.917C142.396 102.667 140.333 104.729 140.333 107.25V153.083C140.333 155.604 142.396 157.667 144.917 157.667H172.417C174.938 157.667 177 155.604 177 153.083V107.25C177 104.729 174.938 102.667 172.417 102.667ZM167.833 143.917H149.5V111.833H167.833V143.917Z" fill="#2F2E41"/>
</g>
<g style="mix-blend-mode:multiply" opacity="0.3">
<path d="M221.25 128H220.065L219.645 127.595C221.115 125.885 222 123.665 222 121.25C222 115.865 217.635 111.5 212.25 111.5C206.865 111.5 202.5 115.865 202.5 121.25C202.5 126.635 206.865 131 212.25 131C214.665 131 216.885 130.115 218.595 128.645L219 129.065V130.25L226.5 137.735L228.735 135.5L221.25 128ZM212.25 128C208.515 128 205.5 124.985 205.5 121.25C205.5 117.515 208.515 114.5 212.25 114.5C215.985 114.5 219 117.515 219 121.25C219 124.985 215.985 128 212.25 128Z" fill="black"/>
</g>
<g style="mix-blend-mode:multiply" opacity="0.3">
<path d="M15.5 127H27.5V123H15.5V127ZM15.5 135H27.5V131H15.5V135ZM15.5 119H27.5V115H15.5V119ZM15.5 107V111H27.5V107H15.5ZM30.5 107H42.5V135H30.5V107Z" fill="black"/>
</g>
</svg>
