<svg width="242" height="242" viewBox="0 0 242 242" fill="none" xmlns="http://www.w3.org/2000/svg">
<g opacity="0.48">
<circle cx="121" cy="121" r="121" fill="#E9F4FF"/>
<circle cx="121.672" cy="121.672" r="90.75" fill="#D4E6F8"/>
<circle cx="121" cy="122.345" r="51.0889" fill="white"/>
</g>
<g style="mix-blend-mode:multiply" opacity="0.4">
<path d="M225.667 127.667V124.333L211.5 116V106.833C211.5 105.45 210.383 104.333 209 104.333C207.617 104.333 206.5 105.45 206.5 106.833V116L192.333 124.333V127.667L206.5 123.5V132.667L202.333 135.167V137.667L209 136L215.667 137.667V135.167L211.5 132.667V123.5L225.667 127.667Z" fill="black"/>
</g>
<g style="mix-blend-mode:multiply" opacity="0.2">
<path d="M192.5 73.0388V60L185.75 53.25H176.75C175.512 53.25 174.511 54.2625 174.511 55.5L174.5 73.5C174.5 74.7375 175.501 75.75 176.739 75.75H190.25C190.756 75.75 191.206 75.5813 191.589 75.3L186.605 70.3163C185.705 70.9013 184.647 71.25 183.5 71.25C180.395 71.25 177.875 68.73 177.875 65.625C177.875 62.52 180.395 60 183.5 60C186.605 60 189.125 62.52 189.125 65.625C189.125 66.7725 188.776 67.83 188.191 68.7188L192.5 73.0388ZM180.125 65.625C180.125 67.4925 181.632 69 183.5 69C185.367 69 186.875 67.4925 186.875 65.625C186.875 63.7575 185.367 62.25 183.5 62.25C181.632 62.25 180.125 63.7575 180.125 65.625Z" fill="black"/>
</g>
<g style="mix-blend-mode:multiply" opacity="0.4">
<path d="M24.9166 110.4C23.4166 109.333 23.0499 107.267 24.0999 105.75C25.1499 104.25 27.2333 103.883 28.7499 104.933C30.2499 106 30.6166 108.067 29.5666 109.583C28.4999 111.083 26.4333 111.45 24.9166 110.4V110.4ZM42.6666 132.667H30.8833C28.4166 132.667 26.3166 130.867 25.9499 128.433L22.6666 112.667H19.3333L22.6499 128.933C23.2833 133 26.7833 136 30.8999 136H42.6666V132.667ZM43.0499 126H34.9166L33.1999 119.167C35.8333 120.65 38.6666 121.733 41.7833 121.2V117.65C39.0666 118.167 36.0499 117.2 33.9666 115.567L31.2333 113.45C30.8499 113.15 30.4166 112.95 29.9666 112.817C29.4333 112.667 28.8666 112.617 28.3166 112.717H28.2833C26.2333 113.083 24.8666 115.033 25.2166 117.067L27.4666 126.933C27.9333 129.3 29.9833 131 32.3833 131H43.7999L50.1666 136L52.6666 133.5L43.0499 126Z" fill="black"/>
</g>
<g style="mix-blend-mode:multiply" opacity="0.2">
<path d="M57.25 69V67.875H49.3862L49.375 72.375C49.375 73.6238 50.3762 74.625 51.625 74.625H67.375C68.6238 74.625 69.625 73.6238 69.625 72.375V67.875H61.75V69H57.25ZM68.5 58.875H63.9887V56.625L61.7387 54.375H57.2387L54.9887 56.625V58.875H50.5C49.2625 58.875 48.25 59.8875 48.25 61.125V64.5C48.25 65.7488 49.2512 66.75 50.5 66.75H57.25V64.5H61.75V66.75H68.5C69.7375 66.75 70.75 65.7375 70.75 64.5V61.125C70.75 59.8875 69.7375 58.875 68.5 58.875ZM61.75 58.875H57.25V56.625H61.75V58.875Z" fill="black"/>
</g>
<g style="mix-blend-mode:multiply" opacity="0.2">
<path d="M177.375 180.125H175.125V172.25H172.875V180.125H170.625V172.25H168.375V180.125C168.375 182.51 170.243 184.445 172.594 184.591V194.75H175.406V184.591C177.757 184.445 179.625 182.51 179.625 180.125V172.25H177.375V180.125ZM183 176.75V185.75H185.812V194.75H188.625V172.25C185.52 172.25 183 174.77 183 176.75Z" fill="black"/>
</g>
<g style="mix-blend-mode:multiply" opacity="0.4">
<path d="M130.5 194.667V195.167H131H132.667C134.224 195.167 135.5 196.443 135.5 198V221.333C135.5 222.89 134.224 224.167 132.667 224.167H109.333C107.761 224.167 106.5 222.892 106.5 221.333C106.5 221.333 106.5 221.333 106.5 221.333L106.517 198V198C106.517 196.438 107.764 195.167 109.333 195.167H111H111.5V194.667V191.833H113.833V194.667V195.167H114.333H127.667H128.167V194.667V191.833H130.5V194.667ZM132.667 221.833H133.167V221.333V203V202.5H132.667H109.333H108.833V203V221.333V221.833H109.333H132.667ZM113.167 209.167V206.833H115.5V209.167H113.167ZM119.833 209.167V206.833H122.167V209.167H119.833ZM126.5 209.167V206.833H128.833V209.167H126.5Z" fill="black" stroke="black"/>
</g>
<g style="mix-blend-mode:multiply" opacity="0.4">
<path d="M121 22.8333C113.18 22.8333 106.833 29.1799 106.833 36.9999C106.833 44.8199 113.18 51.1666 121 51.1666C128.82 51.1666 135.167 44.8199 135.167 36.9999C135.167 29.1799 128.82 22.8333 121 22.8333ZM119.583 48.2341C113.987 47.5399 109.667 42.7799 109.667 36.9999C109.667 36.1216 109.78 35.2858 109.964 34.4641L116.75 41.2499V42.6666C116.75 44.2249 118.025 45.4999 119.583 45.4999V48.2341ZM129.358 44.6358C128.99 43.4883 127.942 42.6666 126.667 42.6666H125.25V38.4166C125.25 37.6374 124.612 36.9999 123.833 36.9999H115.333V34.1666H118.167C118.946 34.1666 119.583 33.5291 119.583 32.7499V29.9166H122.417C123.975 29.9166 125.25 28.6416 125.25 27.0833V26.5024C129.401 28.1883 132.333 32.2541 132.333 36.9999C132.333 39.9466 131.2 42.6241 129.358 44.6358Z" fill="black"/>
</g>
<g style="mix-blend-mode:multiply" opacity="0.2">
<path d="M65.125 176.75H62.875V173.375C62.875 172.756 62.3688 172.25 61.75 172.25H57.25C56.6312 172.25 56.125 172.756 56.125 173.375V176.75H53.875C52.6375 176.75 51.625 177.762 51.625 179V191.375C51.625 192.613 52.6375 193.625 53.875 193.625C53.875 194.244 54.3812 194.75 55 194.75C55.6188 194.75 56.125 194.244 56.125 193.625H62.875C62.875 194.244 63.3812 194.75 64 194.75C64.6188 194.75 65.125 194.244 65.125 193.625C66.3625 193.625 67.375 192.613 67.375 191.375V179C67.375 177.762 66.3625 176.75 65.125 176.75ZM56.6875 190.25H55V180.125H56.6875V190.25ZM60.3438 190.25H58.6562V180.125H60.3438V190.25ZM61.1875 176.75H57.8125V173.938H61.1875V176.75ZM64 190.25H62.3125V180.125H64V190.25Z" fill="black"/>
</g>
<path d="M153.083 121H143.917V134.75H130.167V143.917H153.083V121ZM98.0833 107.25H111.833V98.0833H88.9166V121H98.0833V107.25ZM162.25 79.75H79.7499C74.7083 79.75 70.5833 83.875 70.5833 88.9167V153.083C70.5833 158.125 74.7083 162.25 79.7499 162.25H162.25C167.292 162.25 171.417 158.125 171.417 153.083V88.9167C171.417 83.875 167.292 79.75 162.25 79.75ZM162.25 153.129H79.7499V88.8708H162.25V153.129Z" fill="#2F2E41" fill-opacity="0.8"/>
</svg>
