<svg width="180" height="180" viewBox="0 0 180 180" fill="none" xmlns="http://www.w3.org/2000/svg">
<rect width="180" height="180" rx="16" fill="#C00005"/>
<path d="M63.1773 55.2444C74.2203 55.2444 82.2659 58.2519 87.3141 64.2667C92.4675 70.1778 95.0442 80.8074 95.0442 96.1556C95.0442 111.504 92.0994 122.133 86.2098 128.044C80.3202 133.852 70.1712 136.756 55.7627 136.756C51.2403 136.756 42.9843 136.237 30.9948 135.2L25 134.578V26H46.1395V59.4444C52.8704 56.6444 58.5497 55.2444 63.1773 55.2444ZM55.7627 118.089C62.8091 118.089 67.5419 116.43 69.9608 113.111C72.3798 109.689 73.5892 103.622 73.5892 94.9111C73.5892 80.9111 69.172 73.9111 60.3376 73.9111C56.1308 73.9111 52.1342 74.4296 48.3481 75.4667L46.1395 75.9333V117.467C50.9774 117.881 54.1851 118.089 55.7627 118.089Z" fill="#AB0004"/>
<path d="M130.133 136.756C141.176 136.756 149.222 133.748 154.27 127.733C159.423 121.822 162 111.193 162 95.8444C162 80.4963 159.055 69.8667 153.166 63.9556C147.276 58.1482 137.127 55.2444 122.718 55.2444C118.196 55.2444 109.94 55.763 97.9506 56.8L91.9558 57.4222V166H113.095V132.556C119.826 135.356 125.505 136.756 130.133 136.756ZM122.718 73.9111C129.765 73.9111 134.498 75.5704 136.917 78.8889C139.336 82.3111 140.545 88.3778 140.545 97.0889C140.545 111.089 136.128 118.089 127.293 118.089C123.087 118.089 119.09 117.57 115.304 116.533L113.095 116.067V74.5333C117.933 74.1185 121.141 73.9111 122.718 73.9111Z" fill="#AB0004"/>
<path d="M60.1773 49.2444C71.2203 49.2444 79.2659 52.2519 84.3141 58.2667C89.4675 64.1778 92.0442 74.8074 92.0442 90.1556C92.0442 105.504 89.0994 116.133 83.2098 122.044C77.3202 127.852 67.1712 130.756 52.7627 130.756C48.2403 130.756 39.9843 130.237 27.9948 129.2L22 128.578V20H43.1395V53.4444C49.8704 50.6444 55.5497 49.2444 60.1773 49.2444ZM52.7627 112.089C59.8091 112.089 64.5419 110.43 66.9608 107.111C69.3798 103.689 70.5892 97.6222 70.5892 88.9111C70.5892 74.9111 66.172 67.9111 57.3376 67.9111C53.1308 67.9111 49.1342 68.4296 45.3481 69.4667L43.1395 69.9333V111.467C47.9774 111.881 51.1851 112.089 52.7627 112.089Z" fill="white"/>
<path d="M127.133 130.756C138.176 130.756 146.222 127.748 151.27 121.733C156.423 115.822 159 105.193 159 89.8444C159 74.4963 156.055 63.8667 150.166 57.9556C144.276 52.1482 134.127 49.2444 119.718 49.2444C115.196 49.2444 106.94 49.763 94.9506 50.8L88.9558 51.4222V160H110.095V126.556C116.826 129.356 122.505 130.756 127.133 130.756ZM119.718 67.9111C126.765 67.9111 131.498 69.5704 133.917 72.8889C136.336 76.3111 137.545 82.3778 137.545 91.0889C137.545 105.089 133.128 112.089 124.293 112.089C120.087 112.089 116.09 111.57 112.304 110.533L110.095 110.067V68.5333C114.933 68.1185 118.141 67.9111 119.718 67.9111Z" fill="white"/>
</svg>
