<svg width="181" height="32" viewBox="0 0 181 32" fill="none" xmlns="http://www.w3.org/2000/svg">
<path d="M0.0499878 1.52316H10.2483C15.7458 1.52316 18.4945 3.38557 18.4945 7.11037C18.4945 8.52399 18.3374 9.61226 18.0233 10.3752C17.7316 11.1381 17.1145 11.8561 16.1721 12.5293C17.2716 13.0005 18.0233 13.5839 18.4272 14.2795C18.8535 14.9526 19.0667 16.0858 19.0667 17.6789C19.0667 21.9423 16.1721 24.0739 10.3829 24.0739H0.0499878V1.52316ZM9.67613 15.1546H7.85861V18.857H9.67613C10.4615 18.857 10.9888 18.7335 11.258 18.4867C11.5273 18.2174 11.6619 17.735 11.6619 17.0394C11.6619 16.3214 11.5161 15.8277 11.2244 15.5585C10.9327 15.2892 10.4166 15.1546 9.67613 15.1546ZM9.57516 6.67281H7.85861V10.2742H9.60881C10.282 10.2742 10.7532 10.1284 11.0224 9.83665C11.2917 9.54495 11.4263 9.08496 11.4263 8.45668C11.4263 7.80596 11.2805 7.34597 10.9888 7.07671C10.6971 6.80744 10.2259 6.67281 9.57516 6.67281Z" fill="#C00005"/>
<path d="M22.211 8.7596C23.7144 7.34597 25.9695 6.63915 28.9763 6.63915C31.983 6.63915 34.2269 7.34597 35.7078 8.7596C37.2112 10.1508 37.9629 12.4283 37.9629 15.5921C37.9629 18.756 37.2112 21.0335 35.7078 22.4247C34.2269 23.8159 31.983 24.5115 28.9763 24.5115C25.9695 24.5115 23.7144 23.8159 22.211 22.4247C20.7301 21.0335 19.9896 18.756 19.9896 15.5921C19.9896 12.4283 20.7301 10.1508 22.211 8.7596ZM27.8992 17.8136C28.1012 18.2175 28.4602 18.4194 28.9763 18.4194C29.4924 18.4194 29.8514 18.2175 30.0533 17.8136C30.2553 17.4097 30.3562 16.6692 30.3562 15.5921C30.3562 14.4927 30.2553 13.741 30.0533 13.3371C29.8514 12.9332 29.4924 12.7312 28.9763 12.7312C28.4602 12.7312 28.1012 12.9332 27.8992 13.3371C27.6973 13.741 27.5963 14.4927 27.5963 15.5921C27.5963 16.6692 27.6973 17.4097 27.8992 17.8136Z" fill="#C00005"/>
<path d="M41.2093 8.7596C42.7127 7.34597 44.9678 6.63915 47.9745 6.63915C50.9813 6.63915 53.2252 7.34597 54.7061 8.7596C56.2095 10.1508 56.9612 12.4283 56.9612 15.5921C56.9612 18.756 56.2095 21.0335 54.7061 22.4247C53.2252 23.8159 50.9813 24.5115 47.9745 24.5115C44.9678 24.5115 42.7127 23.8159 41.2093 22.4247C39.7284 21.0335 38.9879 18.756 38.9879 15.5921C38.9879 12.4283 39.7284 10.1508 41.2093 8.7596ZM46.8975 17.8136C47.0994 18.2175 47.4585 18.4194 47.9745 18.4194C48.4906 18.4194 48.8496 18.2175 49.0516 17.8136C49.2535 17.4097 49.3545 16.6692 49.3545 15.5921C49.3545 14.4927 49.2535 13.741 49.0516 13.3371C48.8496 12.9332 48.4906 12.7312 47.9745 12.7312C47.4585 12.7312 47.0994 12.9332 46.8975 13.3371C46.6955 13.741 46.5946 14.4927 46.5946 15.5921C46.5946 16.6692 46.6955 17.4097 46.8975 17.8136Z" fill="#C00005"/>
<path d="M65.9631 24.0739H58.4237V0.850006H65.9631V12.5293H66.9391L68.4538 7.07671H75.8921L73.4688 15.2892L76.0941 24.0739H68.5547L66.9728 19.0926H65.9631V24.0739Z" fill="#C00005"/>
<path d="M77.0276 24.0739V7.07671H84.5669V24.0739H77.0276ZM76.9939 5.99966V0.850006H84.6006V5.99966H76.9939Z" fill="#C00005"/>
<path d="M94.0003 24.0739H86.461V7.07671H93.9667V7.95181C95.3803 7.07671 96.6144 6.63915 97.669 6.63915C100.092 6.63915 101.786 7.30109 102.751 8.62497C103.716 9.9264 104.199 12.2376 104.199 15.5585V24.0739H96.6593V16.0633C96.6593 14.1112 96.2554 13.1351 95.4476 13.1351L94.0003 13.3707V24.0739Z" fill="#C00005"/>
<path d="M108.073 30.6709C106.278 30.0874 105.381 28.7972 105.381 26.8002C105.381 25.9924 105.538 25.2744 105.852 24.6461C106.166 24.0178 106.727 23.3895 107.535 22.7613C106.727 22.2003 106.323 21.3588 106.323 20.2369C106.323 19.9901 106.48 19.6647 106.794 19.2608C107.131 18.8345 107.468 18.4867 107.804 18.2175L108.275 17.7799C106.458 16.9272 105.549 15.3117 105.549 12.9332C105.549 10.5547 106.189 8.91667 107.468 8.01912C108.769 7.09914 110.912 6.63915 113.896 6.63915C114.637 6.63915 115.613 6.72891 116.825 6.90842L117.363 7.00939L123.59 6.90842V11.3176H122.008C122.21 11.8786 122.311 12.3385 122.311 12.6976C122.311 15.1209 121.694 16.7477 120.46 17.578C119.225 18.3857 117.127 18.7896 114.166 18.7896C113.717 18.7896 113.29 18.756 112.887 18.6887C112.797 18.8233 112.752 18.9579 112.752 19.0926C112.752 19.3169 114.076 19.4291 116.724 19.4291C119.371 19.4291 121.155 19.8218 122.075 20.6072C123.018 21.3925 123.489 22.8174 123.489 24.8817C123.489 26.9685 122.726 28.5841 121.2 29.7284C119.674 30.8952 117.498 31.4786 114.67 31.4786C111.843 31.4786 109.644 31.2094 108.073 30.6709ZM111.54 25.8578C111.54 26.1495 112.393 26.2953 114.098 26.2953C115.804 26.2953 116.656 26.1158 116.656 25.7568C116.656 25.5324 116.51 25.3866 116.219 25.3193C115.927 25.2744 115.332 25.2519 114.435 25.2519L111.843 25.1173C111.641 25.2295 111.54 25.4763 111.54 25.8578ZM112.92 13.6063C113.122 13.7858 113.459 13.8756 113.93 13.8756C114.401 13.8756 114.738 13.7858 114.94 13.6063C115.142 13.4268 115.243 13.1127 115.243 12.6639C115.243 12.2151 115.142 11.901 114.94 11.7215C114.738 11.542 114.401 11.4522 113.93 11.4522C113.459 11.4522 113.122 11.542 112.92 11.7215C112.718 11.901 112.617 12.2151 112.617 12.6639C112.617 13.1127 112.718 13.4268 112.92 13.6063Z" fill="#C00005"/>
<path d="M135.859 6.63915C138.237 6.63915 139.943 7.40207 140.975 8.92789C142.007 10.4537 142.523 12.7312 142.523 15.7604C142.523 18.7672 141.951 20.9774 140.807 22.391C139.685 23.8047 137.789 24.5115 135.118 24.5115C134.58 24.5115 133.817 24.3993 132.83 24.1749L132.358 24.0739V30.6372H124.819V7.07671H132.257L132.325 7.95181C133.424 7.07671 134.602 6.63915 135.859 6.63915ZM133.435 18.4194C134.423 18.4194 134.916 17.4321 134.916 15.4575C134.916 14.4029 134.804 13.6849 134.58 13.3034C134.355 12.922 133.974 12.7312 133.435 12.7312L132.358 12.9668V18.3184C132.65 18.3857 133.009 18.4194 133.435 18.4194Z" fill="#C00005"/>
<path d="M160.507 12.5629V18.9579C160.709 19.115 160.978 19.2384 161.315 19.3282L161.214 24.1076C159.463 24.3768 158.263 24.5115 157.612 24.5115C156.962 24.5115 156.367 24.4105 155.828 24.2085C155.29 24.029 154.931 23.8383 154.751 23.6364L154.482 23.3334C153.091 24.1188 151.397 24.5115 149.4 24.5115C147.425 24.5115 145.933 24.0627 144.923 23.1652C143.914 22.2452 143.409 20.7754 143.409 18.756C143.409 16.7365 143.981 15.3902 145.125 14.717C146.27 14.0214 148.076 13.6288 150.544 13.539L152.968 13.438V13.1351C152.968 12.7088 152.496 12.4956 151.554 12.4956C149.512 12.4956 147.47 12.6078 145.428 12.8322L144.317 12.9332L144.149 7.81718C147.111 7.03183 149.815 6.63915 152.261 6.63915C154.819 6.63915 156.805 7.02061 158.218 7.78352C159.744 8.59131 160.507 10.1844 160.507 12.5629ZM151.689 19.3282C152.115 19.3282 152.541 19.1599 152.968 18.8233V17.578L151.823 17.6453C151.24 17.6901 150.948 17.9818 150.948 18.5204C150.948 19.0589 151.195 19.3282 151.689 19.3282Z" fill="#C00005"/>
<path d="M180.05 0.850006V24.0739H172.612L172.544 23.3334C171.31 24.1188 170.132 24.5115 169.01 24.5115C166.542 24.5115 164.814 23.7598 163.827 22.2564C162.84 20.7306 162.346 18.5092 162.346 15.5921C162.346 9.62348 164.825 6.63915 169.784 6.63915L172.511 6.8411V0.850006H180.05ZM171.434 12.7312C170.828 12.7312 170.424 12.978 170.222 13.4717C170.042 13.9653 169.953 14.6722 169.953 15.5921C169.953 16.4897 170.054 17.1853 170.256 17.6789C170.458 18.1726 170.861 18.4194 171.467 18.4194L172.511 18.3184V12.8322C172.017 12.7649 171.658 12.7312 171.434 12.7312Z" fill="#C00005"/>
</svg>
