<svg width="280" height="60" viewBox="0 0 280 60" fill="none" xmlns="http://www.w3.org/2000/svg">
<path d="M19 47.9606C19.53 47.6896 19.767 47.0466 19.767 46.4966V33.0036C19.767 32.4326 19.53 31.8086 19 31.5216H25.431C28.299 31.5216 31.097 32.6956 31.097 35.9516C31.097 37.6786 29.592 39.0406 27.969 39.3466C30.307 39.3256 32.566 40.7536 32.566 43.3336C32.566 47.0206 28.699 47.9616 25.979 47.9616H19V47.9606ZM24.206 32.9376C23.908 32.9376 23.701 32.9376 23.152 33.0036V38.7576H23.803C25.774 38.7576 27.679 38.1486 27.679 35.8646C27.679 33.5986 26.156 32.9376 24.206 32.9376ZM24.616 40.2386C24.146 40.2386 23.724 40.2386 23.152 40.2816V46.3576C23.865 46.4976 24.636 46.5436 25.347 46.5436C26.997 46.5436 28.675 45.8076 28.675 43.2866C28.675 40.7986 26.691 40.2386 24.616 40.2386ZM38.926 32.9376C38.632 32.9376 38.373 32.9856 38.083 33.0266V38.7116C38.352 38.7306 38.596 38.7586 38.862 38.7586C40.712 38.7586 42.081 37.7376 42.081 35.7256C42.081 33.6696 40.735 32.9376 38.926 32.9376ZM47.215 48.0576C46.585 48.0576 45.89 48.0806 45.288 47.9026C44.169 47.5726 42.624 45.0506 42.01 44.0616C41.055 42.4536 40.225 40.2386 38.084 40.2146V46.4966C38.084 47.0466 38.333 47.7126 38.863 47.9606H33.926C34.445 47.6896 34.692 47.0716 34.692 46.4966V33.0036C34.692 32.4326 34.444 31.8086 33.926 31.5216H39.87C42.456 31.5216 45.692 32.5146 45.692 35.6216C45.692 38.2286 43.535 39.5646 41.13 39.5646C44.552 39.5846 46.562 47.6116 50.34 47.6346C49.327 47.9346 48.271 48.0576 47.215 48.0576ZM50.588 47.9606C50.996 47.7736 51.423 47.2346 51.423 46.4966V33.0036C51.423 32.2546 50.996 31.7246 50.588 31.5216H55.647C55.213 31.7246 54.817 32.2546 54.817 33.0036V46.4966C54.817 47.2346 55.213 47.7736 55.647 47.9606H50.588ZM61.566 47.9606C62.108 47.7126 62.373 47.0716 62.373 46.4966V33.4066H58.74C57.902 33.4066 56.903 33.5096 56.183 33.9366L57.312 31.5206H69.362C70.338 31.5206 71.336 31.4996 72.284 31.2976C71.825 32.5346 70.459 33.4516 69.672 33.4516C68.715 33.4296 67.132 33.3656 65.768 33.3656V46.4956C65.768 47.0706 66.053 47.7116 66.585 47.9596H61.566V47.9606ZM72.886 47.9606C73.29 47.7736 73.714 47.2346 73.714 46.4966V33.0036C73.714 32.2546 73.29 31.7246 72.886 31.5216H77.945C77.515 31.7246 77.103 32.2546 77.103 33.0036V46.4966C77.103 47.2346 77.515 47.7736 77.945 47.9606H72.886ZM87.795 44.2416C87.795 41.1106 80.42 40.4036 80.42 35.4056C80.42 32.3116 83.363 31.2986 85.951 31.2986C87.106 31.2986 88.777 31.4586 89.833 31.9446L90.017 35.0176C89.368 33.6606 87.743 32.6776 86.234 32.6776C85.041 32.6776 83.791 33.2676 83.791 34.6316C83.791 37.8786 91.291 38.6716 91.291 43.4056C91.291 46.8416 88.289 48.2646 85.259 48.2646C83.674 48.2646 81.518 47.9596 80.181 47.0456C80.1 46.4956 80.063 45.9206 80.063 45.3576C80.063 44.6866 80.122 44.0136 80.221 43.3516C81.055 45.2526 82.781 46.7396 84.937 46.7396C86.575 46.7406 87.795 46.0266 87.795 44.2416ZM103.595 47.9606C103.952 47.7996 104.334 47.2346 104.334 46.4966V40.3796C103.454 40.2806 102.225 40.2376 100.846 40.2376C99.446 40.2376 98.207 40.2806 97.305 40.3796V46.4966C97.305 47.2346 97.677 47.7736 98.039 47.9606H93.168C93.529 47.7996 93.914 47.2346 93.914 46.4966V33.0036C93.914 32.2546 93.529 31.7026 93.168 31.5216H98.039C97.677 31.7036 97.305 32.2546 97.305 33.0036V38.5306C98.207 38.6256 99.424 38.6716 100.846 38.6716C102.225 38.6716 103.454 38.6116 104.334 38.5306V33.0036C104.334 32.2546 103.953 31.7026 103.595 31.5216H108.459C108.095 31.7036 107.734 32.2546 107.734 33.0036V46.4966C107.734 47.2346 108.095 47.7736 108.459 47.9606H103.595Z" fill="#2E5C99"/>
<path d="M126.514 47.9606C126.671 47.7996 126.813 47.6796 126.813 47.3886C126.813 47.2906 126.776 47.1266 126.656 46.8206C126.656 46.8206 125.306 43.1466 125.148 42.7186C124.134 42.5936 123.077 42.5936 122.042 42.5936C121.06 42.5936 120.063 42.6166 119.09 42.7186C118.952 43.0866 117.505 46.7406 117.505 46.7406C117.31 47.2346 117.243 47.4036 117.243 47.5116C117.243 47.7556 117.453 47.8746 117.631 47.9606H114.322C114.81 47.7126 115.233 47.2026 115.442 46.6946L120.88 32.6586C120.905 32.6006 120.914 32.5356 120.914 32.4566C120.914 32.0696 120.657 31.7026 120.311 31.5206H124.577L130.108 46.6806C130.334 47.2896 130.816 47.7336 131.221 47.9596H126.514V47.9606ZM122.219 34.6506L119.726 41.0506C120.469 41.1326 121.24 41.1516 121.992 41.1516C122.854 41.1516 123.706 41.1516 124.544 41.0506L122.219 34.6506ZM132.063 47.9606C132.471 47.7736 132.893 47.2346 132.893 46.4966V33.0036C132.893 32.2546 132.471 31.7246 132.063 31.5216H137.119C136.689 31.7246 136.288 32.2546 136.288 33.0036V46.4966C136.288 47.2346 136.688 47.7736 137.119 47.9606H132.063ZM144.805 32.9376C144.532 32.9376 144.27 32.9856 143.986 33.0266V38.7116C144.25 38.7306 144.491 38.7586 144.748 38.7586C146.602 38.7586 147.968 37.7376 147.968 35.7256C147.967 33.6696 146.616 32.9376 144.805 32.9376ZM153.507 48.0576C152.877 48.0576 152.197 48.0806 151.581 47.9026C150.46 47.5726 148.919 45.0506 148.304 44.0616C147.353 42.4536 146.115 40.2146 143.986 40.2146V46.4966C143.986 47.0466 144.224 47.7126 144.748 47.9606H139.815C140.345 47.6896 140.592 47.0716 140.592 46.4966V33.0036C140.592 32.4326 140.345 31.8086 139.815 31.5216H145.772C148.351 31.5216 151.582 32.5146 151.582 35.6216C151.582 38.2286 149.225 39.5646 147.441 39.5646C150.988 39.7686 153.127 47.6346 156.646 47.6346C155.626 47.9346 154.57 48.0576 153.507 48.0576ZM174.017 33.1266L169.021 47.9606C168.609 47.9606 168.205 47.8186 167.976 47.6576C167.482 47.1816 166.705 45.1946 166.425 44.4616L164.167 38.7576L160.915 47.9606H159.367L153.776 33.0896C153.536 32.4566 153.126 31.8496 152.516 31.5216H157.375C157.17 31.6806 157.029 31.8616 157.029 32.2076C157.029 32.3736 157.111 32.6026 157.17 32.7796L160.811 42.6176L164.688 31.5216L168.958 42.2186L172.192 32.5356C172.272 32.2726 172.319 32.1756 172.319 32.0096C172.319 31.8086 172.232 31.6806 172.029 31.5216H175.247C174.652 31.8336 174.222 32.5146 174.017 33.1266ZM179.989 34.6506L177.497 41.0506C178.249 41.1326 179.018 41.1516 179.768 41.1516C180.621 41.1516 181.483 41.1516 182.316 41.0506L179.989 34.6506ZM184.279 47.9606C184.449 47.7996 184.578 47.6796 184.578 47.3886C184.578 47.2906 184.528 47.1266 184.429 46.8206C184.429 46.8206 183.088 43.1466 182.925 42.7186C181.902 42.5936 180.847 42.5936 179.812 42.5936C178.839 42.5936 177.841 42.6166 176.863 42.7186C176.722 43.0866 175.285 46.7406 175.285 46.7406C175.078 47.2346 175.021 47.4036 175.021 47.5116C175.021 47.7556 175.222 47.8746 175.398 47.9606H172.088C172.577 47.7126 172.999 47.2026 173.204 46.6946L178.661 32.6586C178.677 32.6006 178.692 32.5356 178.692 32.4566C178.692 32.0696 178.434 31.7026 178.079 31.5206H182.349L187.878 46.6806C188.107 47.2896 188.595 47.7336 188.997 47.9596H184.279V47.9606ZM199.134 33.2476L195.24 40.0756V46.4966C195.24 47.0186 195.454 47.7126 195.974 47.9606H191.129C191.624 47.6896 191.852 47.0016 191.852 46.4966V40.0546L188.467 34.6316C188.164 34.1246 186.752 31.7616 185.031 31.7616C185.499 31.5836 186.922 31.3126 187.877 31.3126C189.47 31.3126 190.259 31.4586 191.234 32.9856L194.366 37.9496C194.629 37.4626 197.109 33.1506 197.109 33.1506C197.408 32.6256 197.613 32.2546 197.613 32.0706C197.613 31.8346 197.511 31.6806 197.271 31.5216H200.761C200.077 31.8496 199.507 32.6016 199.134 33.2476ZM208.249 44.2416C208.249 41.1106 200.873 40.4036 200.873 35.4056C200.873 32.3116 203.808 31.2986 206.397 31.2986C207.556 31.2986 209.217 31.4586 210.278 31.9446L210.462 35.0176C209.806 33.6606 208.188 32.6776 206.678 32.6776C205.483 32.6776 204.241 33.2676 204.241 34.6316C204.241 37.8786 211.741 38.6716 211.741 43.4056C211.741 46.8416 208.76 48.2646 205.708 48.2646C204.124 48.2646 201.963 47.9596 200.624 47.0456C200.537 46.4956 200.495 45.9206 200.495 45.3576C200.495 44.6866 200.559 44.0136 200.661 43.3516C201.494 45.2526 203.226 46.7396 205.382 46.7396C207.027 46.7406 208.249 46.0266 208.249 44.2416Z" fill="#2E5C99"/>
<path d="M253.626 20.0146C250.862 22.7616 244.874 25.1196 241.928 26.2236C237.903 27.7356 236.117 28.2706 233.865 29.0036C231.316 29.8306 226.217 31.3736 226.217 31.3736C236.78 34.5276 244.224 35.4786 244.224 35.4786C244.224 35.4786 247.692 34.4066 253.186 31.4686C256.161 29.9566 257.625 28.9386 258.672 27.9656C259.058 27.6166 260.055 26.5786 260.303 25.2506C260.319 25.1536 260.367 24.8996 260.367 24.6496C260.367 24.6496 260.367 24.4736 260.351 24.3206C260.345 24.1446 260.314 24.0266 260.314 24.0266C260.314 24.0266 260.255 23.7116 260.177 23.4906C260.096 23.2696 259.756 22.5876 259.205 22.1446C258.837 21.8456 258.201 21.1006 255.897 20.2906C255.114 20.0186 253.846 19.7676 253.846 19.7676L253.626 20.0146Z" fill="url(#paint0_linear)"/>
<path d="M260.366 24.5796C260.366 24.5796 260.35 24.2856 260.278 24.0366C260.222 23.8146 260.123 23.6026 259.974 23.3796C259.794 23.1146 259.551 22.8036 259.192 22.4596C258.921 22.2036 258.624 21.9776 258.266 21.7376C256.825 20.7936 254.965 20.2616 253.319 20.0366C250.768 19.6976 247.842 19.7576 247.565 19.7476C246.624 19.7346 240.544 19.7846 238.981 19.8126C232.04 19.9556 223.543 19.9746 221.317 19.9746C198.338 20.0796 188.336 19.5846 177.204 17.3526C167.734 15.4716 162.48 13.6846 162.48 13.6846C170.833 13.3956 219.571 11.3736 228.462 11.1376C234.283 10.9736 238.416 10.9386 241.723 11.1296C243.419 11.2246 244.997 11.3686 246.979 11.7056C248.756 12.0096 250.37 12.5256 251.31 12.8746C253.29 13.6076 254.959 14.6676 255.784 15.7536C255.784 15.7536 256.028 16.0036 256.359 16.4476C256.73 16.9636 257.161 17.5986 257.307 17.8356C258.512 19.6616 259.084 20.8086 259.283 21.2086C259.498 21.6286 259.688 22.0646 259.873 22.4916C260.054 22.9156 260.128 23.1726 260.186 23.3516C260.313 23.8006 260.344 24.2096 260.35 24.3016L260.366 24.5796Z" fill="#CE210F"/>
<defs>
<linearGradient id="paint0_linear" x1="250.105" y1="16.6786" x2="237.769" y2="38.045" gradientUnits="userSpaceOnUse">
<stop stop-color="#E6EBEF"/>
<stop offset="0.0764" stop-color="#BBCEE5"/>
<stop offset="0.1854" stop-color="#85A9D8"/>
<stop offset="0.2796" stop-color="#5D8FCF"/>
<stop offset="0.3543" stop-color="#457EC9"/>
<stop offset="0.4" stop-color="#3C78C7"/>
<stop offset="0.9" stop-color="#2E5C99"/>
</linearGradient>
</defs>
</svg>
