<svg width="280" height="60" viewBox="0 0 280 60" fill="none" xmlns="http://www.w3.org/2000/svg">
<path d="M99.4082 43.9698C99.1357 43.9883 98.8711 44.0051 98.5977 44.0051C98.289 44.0051 97.9901 43.9786 97.6814 43.9698L98.5801 41.8028L99.4082 43.9698ZM100.404 46.4278C100.563 46.4189 100.81 46.3757 101.056 46.3757C101.303 46.3757 101.611 46.4189 101.744 46.4278C101.347 45.5732 100.765 44.2423 100.43 43.4759C100.113 42.7368 99.5846 41.503 99.1622 40.2956C99.0651 40.322 98.9761 40.3406 98.8799 40.3406C98.7741 40.3406 98.6859 40.322 98.5889 40.2956C98.3781 41.0179 97.8657 42.1635 96.9767 44.1559L95.9545 46.4278C96.0771 46.4101 96.2015 46.3757 96.3505 46.3757C96.4916 46.3757 96.6601 46.4101 96.7738 46.4278C96.9141 45.9259 97.1963 45.1939 97.4776 44.5166C97.8304 44.4981 98.1832 44.4813 98.5351 44.4813C98.9143 44.4813 99.2848 44.4981 99.6649 44.5166L100.034 45.4506L100.404 46.4278V46.4278Z" fill="#505967"/>
<path d="M102.516 42.4192C102.516 43.9256 102.516 45.3799 102.419 46.4277C102.614 46.4197 102.86 46.3756 103.053 46.3756C103.256 46.3756 103.468 46.4197 103.671 46.4277C103.6 45.7142 103.582 44.7625 103.582 43.4502C103.582 42.5594 103.582 41.0363 103.679 40.3837C103.468 40.4101 103.248 40.4375 103.053 40.4375C102.922 40.4375 102.595 40.4022 102.428 40.3837C102.516 41.2374 102.516 41.8636 102.516 42.4192Z" fill="#505967"/>
<path d="M107.756 43.4325C108.559 43.2826 109.29 42.7798 109.29 41.8026C109.29 41.4322 109.149 41.0706 108.885 40.8149C108.507 40.4541 108.074 40.3836 107.501 40.3836C107.298 40.3836 106.276 40.4277 106.048 40.4277C105.598 40.4277 105.369 40.4021 105.167 40.3836C105.228 41.5204 105.228 41.6439 105.228 42.7984C105.228 44.4979 105.219 44.6919 105.149 46.4276C105.343 46.402 105.555 46.3755 105.756 46.3755C105.977 46.3755 106.17 46.4099 106.347 46.4276C106.347 46.1992 106.311 45.0623 106.311 44.8066V43.556H106.523C106.999 44.2254 107.544 45.0006 107.994 45.6973C108.127 45.8993 108.321 46.2256 108.453 46.4276C108.717 46.3923 108.823 46.3755 109.167 46.3755C109.484 46.3755 109.704 46.402 109.95 46.4276C109.396 45.7326 109.157 45.4239 108.462 44.4458C108.329 44.2606 108.135 43.9696 108.003 43.7853L107.756 43.4325ZM106.311 40.8598C106.444 40.8501 106.77 40.8149 106.938 40.8149C107.228 40.8149 107.52 40.8598 107.756 41.0362C108.065 41.2647 108.127 41.5822 108.127 41.9526C108.127 42.5241 107.801 43.1688 106.92 43.1688C106.691 43.1688 106.479 43.1503 106.311 43.1414V40.8598V40.8598Z" fill="#505967"/>
<path d="M112.345 44.3667C111.933 43.1417 111.359 41.4237 111.086 40.3838C110.866 40.4191 110.672 40.4368 110.47 40.4368C110.258 40.4368 109.958 40.4024 109.782 40.3838C110.143 41.3355 110.451 42.1804 110.69 42.8507C111.096 43.9963 111.359 44.7901 111.677 45.7576L111.897 46.4278C112.02 46.4023 112.16 46.3758 112.258 46.3758C112.355 46.3758 112.443 46.3926 112.592 46.4278C112.733 45.9701 112.901 45.4065 113.025 45.0449C113.368 44.0404 113.413 43.8993 113.862 42.6487L114.126 41.9176C114.223 42.1989 114.391 42.6487 114.487 42.93C114.584 43.2034 115.034 44.5519 115.139 44.8518C115.281 45.2478 115.315 45.3616 115.641 46.4278C115.721 46.419 115.887 46.3758 116.021 46.3758C116.144 46.3758 116.24 46.4023 116.372 46.4278C116.708 45.3801 116.743 45.2743 117.236 43.864C117.721 42.4891 118.02 41.7059 118.548 40.3838C118.416 40.4191 118.285 40.4368 118.152 40.4368C117.985 40.4368 117.844 40.4103 117.747 40.3838C117.43 41.5295 117.272 42.0851 117.016 42.8418C116.602 44.0748 116.549 44.2159 116.294 44.8862C116.012 44.1286 115.738 43.3613 115.483 42.587C115.342 42.1636 114.803 40.4024 114.795 40.3838C114.673 40.4103 114.584 40.4368 114.407 40.4368C114.25 40.4368 114.134 40.4024 114.02 40.3838C113.756 41.4589 112.822 44.0492 112.733 44.2874L112.513 44.8597L112.345 44.3667Z" fill="#505967"/>
<path d="M121.236 43.9698C120.963 43.9883 120.699 44.0051 120.425 44.0051C120.117 44.0051 119.817 43.9786 119.51 43.9698L120.407 41.8028L121.236 43.9698ZM122.231 46.4278C122.391 46.4189 122.638 46.3757 122.884 46.3757C123.131 46.3757 123.439 46.4189 123.571 46.4278C123.175 45.5732 122.593 44.2423 122.258 43.4759C121.94 42.7368 121.412 41.503 120.989 40.2956C120.892 40.322 120.804 40.3406 120.707 40.3406C120.602 40.3406 120.513 40.322 120.416 40.2956C120.205 41.0179 119.694 42.1635 118.804 44.1559L117.782 46.4278C117.906 46.4101 118.029 46.3757 118.179 46.3757C118.32 46.3757 118.486 46.4101 118.602 46.4278C118.742 45.9259 119.025 45.1939 119.307 44.5166C119.659 44.4981 120.011 44.4813 120.363 44.4813C120.742 44.4813 121.112 44.4981 121.491 44.5166L121.862 45.4506L122.231 46.4278V46.4278Z" fill="#505967"/>
<path d="M125.93 44.0667C125.93 43.9882 125.983 43.8912 126.045 43.7845C126.415 43.1503 126.758 42.4889 127.155 41.8548C127.286 41.6431 127.93 40.6218 128.063 40.3837C127.966 40.4189 127.869 40.4375 127.693 40.4375C127.498 40.4375 127.322 40.4101 127.181 40.3837C126.546 41.7763 126.405 42.0752 125.657 43.362C124.909 42.0497 124.574 41.3538 124.115 40.3837C123.86 40.4278 123.603 40.4375 123.393 40.4375C123.199 40.4375 122.996 40.4189 122.67 40.3837C123.128 41.1501 123.878 42.3663 124.327 43.1415L124.846 44.0402C124.846 44.587 124.82 45.7406 124.794 46.4277C124.961 46.41 125.208 46.3756 125.383 46.3756C125.586 46.3756 125.79 46.41 125.993 46.4277C125.956 45.6083 125.93 45.133 125.93 44.3921V44.0667Z" fill="#505967"/>
<path d="M128.571 45.1069C128.528 45.5294 128.518 45.644 128.368 46.1018C128.686 46.2605 129.259 46.5516 130.016 46.5516C131.629 46.5516 132.254 45.5215 132.254 44.6219C132.254 44.3749 132.192 43.8546 131.823 43.4586C131.567 43.1764 131.302 43.0802 130.624 42.8156C129.85 42.5158 129.399 42.3394 129.399 41.6964C129.399 41.177 129.743 40.7448 130.439 40.7448C130.994 40.7448 131.462 41.0094 131.593 41.5112H131.717C131.796 41.177 131.814 41.1064 131.99 40.6743C131.558 40.4811 131.17 40.3136 130.527 40.3136C128.932 40.3136 128.474 41.3005 128.474 42.0748C128.474 42.8068 128.731 43.2566 129.584 43.635C129.83 43.7408 130.246 43.8987 130.492 44.0054C130.659 44.0751 131.215 44.3211 131.215 45.0179C131.215 45.6529 130.756 46.1203 130.061 46.1203C129.54 46.1203 129.099 45.988 128.694 45.1069H128.571Z" fill="#505967"/>
<path d="M79.6213 28.823C79.6213 22.1625 83.1896 20.3642 85.8866 20.3642C90.2214 20.3642 92.0982 23.9599 92.0982 27.7929C92.0982 29.9863 91.8336 32.0483 90.7497 33.7143C89.6658 35.3785 87.8693 36.3839 85.9122 36.3839C81.0227 36.3839 79.6213 31.7308 79.6213 28.823ZM92.7852 42.4376C93.5781 41.882 94.8208 41.195 95.7195 40.7981L89.746 37.0966C93.4194 35.8019 95.7195 32.5237 95.7195 28.0566C95.7195 21.7136 90.882 19.0166 85.9387 19.0166C80.6002 19.0166 76 21.9773 76 28.6916C76 30.1177 76.3175 32.8147 78.5374 35.0619C80.8375 37.3885 83.5601 37.7316 85.8602 37.7316C86.1503 37.7316 86.4405 37.7316 86.7324 37.706L92.7852 42.4376V42.4376Z" fill="#5C0632"/>
<path d="M108.051 29.9866C107.231 30.0403 106.439 30.0933 105.618 30.0933C104.693 30.0933 103.795 30.013 102.87 29.9866L105.567 23.4839L108.051 29.9866ZM111.038 37.3614C111.514 37.3349 112.254 37.2027 112.993 37.2027C113.735 37.2027 114.659 37.3349 115.056 37.3614C113.867 34.7976 112.122 30.8059 111.117 28.5058C110.165 26.2859 108.579 22.5844 107.311 18.9631C107.02 19.0433 106.755 19.0963 106.465 19.0963C106.148 19.0963 105.883 19.0433 105.593 18.9631C104.958 21.1318 103.425 24.5679 100.756 30.5413L97.6882 37.3614C98.0586 37.3094 98.429 37.2027 98.8779 37.2027C99.3004 37.2027 99.804 37.3094 100.147 37.3614C100.569 35.8542 101.417 33.6607 102.262 31.6252C103.319 31.5732 104.376 31.5203 105.433 31.5203C106.57 31.5203 107.681 31.5732 108.818 31.6252L109.927 34.428L111.038 37.3614V37.3614Z" fill="#5C0632"/>
<path d="M122.768 23.96C122.768 22.9555 122.794 21.9509 122.82 20.9984C124.644 20.9984 126.522 21.0258 128.081 21.1836C128.001 20.7612 127.949 20.5239 127.949 20.2329C127.949 20.0212 128.001 19.6764 128.081 19.2284C125.543 19.3598 123.217 19.3862 121.023 19.3862C118.987 19.3862 116.053 19.3598 113.964 19.2284C114.045 19.5459 114.097 19.8889 114.097 20.2064C114.097 20.5239 114.045 20.867 113.964 21.1836C115.314 21.0522 117.851 20.9984 118.088 20.9984H119.41C119.437 22.0303 119.463 22.9555 119.463 23.9336L119.49 31.3075C119.49 33.3175 119.332 35.353 119.225 37.3612C120.177 37.2563 120.574 37.2034 121.023 37.2034C121.34 37.2034 122.186 37.2827 122.953 37.3612C122.873 36.6221 122.768 35.749 122.768 33.7408V23.96Z" fill="#5C0632"/>
<path d="M137.481 29.9866C136.662 30.0403 135.869 30.0933 135.049 30.0933C134.123 30.0933 133.226 30.013 132.3 29.9866L134.997 23.4839L137.481 29.9866ZM140.468 37.3614C140.944 37.3349 141.684 37.2027 142.424 37.2027C143.164 37.2027 144.089 37.3349 144.486 37.3614C143.297 34.7976 141.552 30.8059 140.548 28.5058C139.596 26.2859 138.009 22.5844 136.741 18.9631C136.45 19.0433 136.185 19.0963 135.895 19.0963C135.578 19.0963 135.313 19.0433 135.022 18.9631C134.389 21.1318 132.855 24.5679 130.185 30.5413L127.119 37.3614C127.489 37.3094 127.86 37.2027 128.309 37.2027C128.731 37.2027 129.233 37.3094 129.578 37.3614C130.001 35.8542 130.846 33.6607 131.692 31.6252C132.748 31.5732 133.806 31.5203 134.864 31.5203C136.001 31.5203 137.111 31.5732 138.247 31.6252L139.358 34.428L140.468 37.3614V37.3614Z" fill="#5C0632"/>
<path d="M155.132 28.3752C157.537 27.9254 159.732 26.419 159.732 23.4839C159.732 22.3735 159.308 21.2896 158.515 20.524C157.379 19.4401 156.083 19.2285 154.365 19.2285C153.756 19.2285 150.691 19.3599 150.003 19.3599C148.654 19.3599 147.967 19.2805 147.361 19.2285C147.545 22.6381 147.545 23.0076 147.545 26.4701C147.545 31.5731 147.518 32.1534 147.308 37.3613C147.889 37.2828 148.523 37.2026 149.131 37.2026C149.791 37.2026 150.373 37.3093 150.902 37.3613C150.902 36.6734 150.797 33.2647 150.797 32.4974V28.7438H151.432C152.859 30.7529 154.498 33.0795 155.846 35.1679C156.242 35.7765 156.823 36.7545 157.219 37.3613C158.013 37.2564 158.33 37.2026 159.36 37.2026C160.312 37.2026 160.973 37.2828 161.713 37.3613C160.048 35.2738 159.336 34.3486 157.246 31.4143C156.849 30.8587 156.268 29.9865 155.871 29.4317L155.132 28.3752ZM150.797 20.6555C151.193 20.6299 152.171 20.524 152.673 20.524C153.546 20.524 154.417 20.6555 155.132 21.1837C156.057 21.8717 156.242 22.8224 156.242 23.9337C156.242 25.6517 155.264 27.5814 152.62 27.5814C151.933 27.5814 151.298 27.5276 150.797 27.5029V20.6555Z" fill="#5C0632"/>
<path d="M194.647 28.4253C194.647 28.5955 192.254 28.7552 188.838 28.8892C188.235 28.547 187.778 28.2031 187.442 27.9067C191.585 28.0531 194.647 28.2339 194.647 28.4253Z" fill="#747F8A"/>
<path d="M192.193 22.6585C192.193 22.8005 190.188 22.9337 187.32 23.0484C187.731 22.8085 188.155 22.5668 188.599 22.3243C190.765 22.4239 192.193 22.5395 192.193 22.6585Z" fill="#747F8A"/>
<path d="M170.829 35.0649C169.502 35.0808 168.338 35.0869 167.429 35.0869C166.12 35.0869 165.06 34.6839 165.06 34.1838C165.06 33.6864 166.12 33.2834 167.429 33.2834C168.587 33.2834 170.157 33.2957 171.958 33.3186C171.262 34.3241 170.931 34.9282 170.9 34.9661C170.88 34.9952 170.854 35.0296 170.829 35.0649Z" fill="#747F8A"/>
<path d="M171.544 36.2727C171.982 36.801 172.402 37.2455 172.963 37.7315C172.963 37.7315 173.175 38.034 173.818 37.7747C174.472 37.5083 175.027 37.1459 175.652 36.3071C177.478 36.338 179.414 36.3786 181.32 36.4218C181.477 36.6502 181.795 37.1229 182.188 37.7059C176.875 37.8435 171.109 37.9255 168.155 37.9255C166.925 37.9255 165.926 37.5436 165.926 37.0762C165.926 36.6061 166.925 36.2269 168.155 36.2269C169.055 36.2269 170.214 36.233 171.54 36.248C171.539 36.2604 171.544 36.2727 171.544 36.2727Z" fill="#747F8A"/>
<path d="M169.489 40.7034C168.397 40.7034 167.513 40.3673 167.513 39.9528C167.513 39.5374 168.397 39.2005 169.489 39.2005C172.378 39.2005 178.299 39.2887 183.37 39.4325C183.614 39.7826 183.859 40.131 184.091 40.4511C178.87 40.6046 172.514 40.7034 169.489 40.7034Z" fill="#747F8A"/>
<path d="M186.332 43.1127C182.073 43.2997 174.75 43.4249 171.707 43.4249C170.851 43.4249 170.155 43.1577 170.155 42.834C170.155 42.5077 170.851 42.2422 171.707 42.2422C174.618 42.2422 181.453 42.3569 185.767 42.5288C185.961 42.7379 186.152 42.9345 186.332 43.1127Z" fill="#747F8A"/>
<path d="M175.221 44.7101C177.734 44.7101 185.383 44.8997 185.383 45.129C185.383 45.3618 177.733 45.5497 175.221 45.5497C174.731 45.5497 174.335 45.3618 174.335 45.129C174.335 44.8997 174.731 44.7101 175.221 44.7101Z" fill="#747F8A"/>
<path d="M175.249 29.2437C172.086 29.2975 169.252 29.3275 167.428 29.3275C166.12 29.3275 165.06 28.9244 165.06 28.4252C165.06 27.9269 166.12 27.5221 167.428 27.5221C169.547 27.5221 173.028 27.5627 176.802 27.6341C176.241 28.1889 175.722 28.7286 175.249 29.2437Z" fill="#747F8A"/>
<path d="M190.761 25.2099C192.614 25.3105 193.78 25.4207 193.78 25.5354C193.78 25.6615 192.369 25.7823 190.185 25.8899C190.652 25.5389 190.754 25.2329 190.761 25.2099Z" fill="#747F8A"/>
<path d="M168.155 26.3833C166.924 26.3833 165.926 26.004 165.926 25.5348C165.926 25.0665 166.924 24.6855 168.155 24.6855C170.68 24.6855 175.26 24.7473 179.855 24.8487C179.291 25.3241 178.757 25.7941 178.252 26.2554C174.22 26.3365 170.387 26.3833 168.155 26.3833Z" fill="#747F8A"/>
<path d="M181.886 23.218C177.188 23.3371 172.099 23.4103 169.489 23.4103C168.397 23.4103 167.513 23.0743 167.513 22.6589C167.513 22.2435 168.397 21.9057 169.489 21.9057C172.37 21.9057 178.278 21.9957 183.342 22.1385C183.089 22.322 182.835 22.5054 182.578 22.6977C182.343 22.8723 182.112 23.0443 181.886 23.218Z" fill="#747F8A"/>
<path d="M171.707 20.3676C170.851 20.3676 170.155 20.1039 170.155 19.7767C170.155 19.4504 170.851 19.1849 171.707 19.1849C174.938 19.1849 182.995 19.3278 187.087 19.5315C186.826 19.7026 186.565 19.8799 186.302 20.058C182.036 20.2423 174.744 20.3676 171.707 20.3676Z" fill="#747F8A"/>
<path d="M167.184 32.2233C165.853 32.2233 164.771 31.8132 164.771 31.3043C164.771 30.7989 165.853 30.387 167.184 30.387C168.854 30.387 171.352 30.4117 174.178 30.455C173.647 31.0794 173.186 31.6579 172.791 32.1765C170.541 32.2065 168.574 32.2233 167.184 32.2233Z" fill="#747F8A"/>
<path d="M174.336 17.4809C174.336 17.2489 174.732 17.0611 175.221 17.0611C177.733 17.0611 185.383 17.2489 185.383 17.4809C185.383 17.7111 177.734 17.8998 175.221 17.8998C174.732 17.8998 174.336 17.7111 174.336 17.4809Z" fill="#747F8A"/>
<path d="M194.898 30.6251C194.915 31.0828 194.913 31.537 194.89 31.9824C190.439 32.1588 186.219 32.4269 186.219 32.7285C186.219 33.0249 190.345 33.2903 194.744 33.4658C194.667 33.9738 194.567 34.4721 194.445 34.9607C190.109 35.138 186.084 35.3991 186.084 35.6928C186.084 35.9759 189.841 36.2308 194.002 36.408C193.811 36.939 193.595 37.4549 193.353 37.9488C189.78 38.1208 186.827 38.3501 186.827 38.6005C186.827 38.8343 189.407 39.0503 192.658 39.217C192.476 39.5142 192.285 39.8053 192.086 40.0805C191.874 40.3803 191.644 40.6775 191.401 40.9695C189.368 41.1238 187.973 41.2993 187.973 41.4872C187.973 41.6486 188.972 41.7994 190.512 41.9343C189.671 42.766 188.678 43.543 187.508 44.2212C187.508 44.2212 186.129 43.0341 184.992 41.6477C183.977 40.4112 181.825 37.1515 181.319 36.4221C180.812 35.6928 180.479 35.4793 179.886 35.691C179.091 35.9723 178.168 36.1135 177.884 36.1135C177.6 36.1135 177.444 36.0032 177.92 35.8145C178.395 35.6231 180.271 34.7376 181.194 32.9076C182.231 30.8465 181.319 28.0004 181.319 28.0004C180.971 29.5218 180.179 30.0897 180.179 30.0897C180.435 28.6769 180.156 27.3963 179.458 26.4976L179.069 28.2862C179.069 28.2862 178.826 28.2738 178.224 28.7801C177.622 29.2872 177.456 30.0262 177.456 30.0262C177.93 30.2167 178.5 29.7414 178.5 29.7414C177.772 32.4639 176.729 34.6803 175.968 35.8524C175.207 37.0245 174.58 37.4664 173.818 37.7759C173.175 38.0335 172.964 37.7309 172.964 37.7309C172.402 37.2459 171.982 36.8014 171.545 36.2731C171.545 36.2731 171.509 36.2113 171.627 36.2131C171.941 36.2175 172.498 35.6822 172.62 35.4599C172.759 35.205 172.744 35.0101 172.674 34.9969C172.606 34.9854 172.487 35.1874 171.882 35.5684C171.282 35.9485 171.006 35.6848 170.806 35.4732C170.65 35.3047 170.803 35.0966 170.9 34.966C170.992 34.8496 174.169 28.9238 182.578 22.6981C193.597 14.5392 200.634 12.3361 201.037 12.1774C201.303 12.0724 201.738 11.9339 201.837 12.0354C201.946 12.15 202 12.2417 201.985 12.3749C201.971 12.5072 201.9 12.5751 201.391 12.8C197.161 14.6636 192.223 17.7698 189.417 19.5778C185.967 21.2588 182.673 23.6595 182.553 23.7168C182.288 23.8817 182.483 24.1216 182.644 24.0211C188.47 20.1458 195.301 17.5061 202.849 15.3436C203.21 15.2413 203.408 15.2413 203.468 15.3206C203.535 15.4088 203.565 15.5094 203.575 15.6205C203.585 15.759 203.47 15.8322 203.161 15.953C195.051 18.9657 189.074 21.7641 185.23 24.3509C185.23 24.3509 184.832 24.5908 184.827 24.8686C184.825 24.9744 185.04 24.9868 185.04 24.9868C186.965 25.0212 189.537 25.1341 190.761 25.2055C190.761 25.2055 190.587 25.8255 189.415 26.3247C188.51 26.711 187.672 26.6493 186.843 26.6563C186.659 26.6528 186.502 26.8389 186.65 27.0373C186.724 27.1361 188.488 29.976 194.898 30.6251Z" fill="#5C0632"/>
<path d="M136.132 45.4759H135.046C135.046 45.4759 134.899 44.8073 135.293 44.5516C135.688 44.2923 136.132 44.093 136.132 44.093V45.4759ZM141.288 42.9729C141.288 42.9729 140.628 43.3521 140.21 43.7243C139.794 44.093 140.295 44.2332 140.295 44.2332V45.4759H137.142V41.127C137.142 41.127 135.993 42.1835 135.886 42.3238C135.774 42.4737 136.159 42.6095 136.159 42.6095L136.094 43.0214C136.094 43.0214 135.636 43.2586 135.08 43.6344C134.528 44.0057 134.119 44.4793 134.119 44.8073C134.119 45.1363 133.98 46.4275 133.98 46.4275H141.288V42.9729ZM134.761 41.3827C135.121 41.3827 135.375 41.2407 135.375 40.9541C135.375 40.6666 135.206 40.4664 134.761 40.4664C134.365 40.4664 134.259 40.6393 134.259 40.9541C134.259 41.2716 134.397 41.3827 134.761 41.3827ZM136.105 41.3827C136.468 41.3827 136.715 41.2407 136.715 40.9541C136.715 40.6666 136.548 40.4664 136.105 40.4664C135.707 40.4664 135.603 40.6393 135.603 40.9541C135.603 41.2716 135.74 41.3827 136.105 41.3827ZM138.142 46.8014C137.748 46.8014 137.64 46.9699 137.64 47.2865C137.64 47.6005 137.779 47.7151 138.142 47.7151C138.501 47.7151 138.756 47.5723 138.756 47.2865C138.756 46.9981 138.59 46.8014 138.142 46.8014V46.8014ZM139.539 46.8014C139.145 46.8014 139.038 46.9699 139.038 47.2865C139.038 47.6005 139.18 47.7151 139.539 47.7151C139.904 47.7151 140.154 47.5723 140.154 47.2865C140.154 46.9981 139.989 46.8014 139.539 46.8014ZM155.287 41.2972C155.65 41.2972 155.904 41.1587 155.904 40.8721C155.904 40.5872 155.736 40.3835 155.287 40.3835C154.895 40.3835 154.788 40.5564 154.788 40.8721C154.788 41.1878 154.929 41.2972 155.287 41.2972ZM156.684 41.2972C157.043 41.2972 157.296 41.1587 157.296 40.8721C157.296 40.5872 157.128 40.3835 156.684 40.3835C156.289 40.3835 156.184 40.5564 156.184 40.8721C156.184 41.1878 156.318 41.2972 156.684 41.2972ZM160.538 41.4154C160.341 41.5856 160.398 41.7893 160.648 41.7611V46.4337H161.683V40.6172C161.683 40.6172 160.731 41.246 160.538 41.4154ZM156.377 44.0356H155.706C155.706 43.6679 156.377 43.4641 156.377 43.4641V44.0356ZM151.964 44.8073C151.964 44.9767 151.956 45.2527 151.948 45.4759H146.098V44.4475C146.251 44.0515 146.509 44.0057 146.907 44.0057H151.184C152.107 44.0057 151.964 44.4916 151.964 44.8073V44.8073ZM158.806 41.7558V45.4759H157.413V42.098C157.413 42.098 157.128 42.2074 156.737 42.3802C156.35 42.5557 154.95 43.1246 154.95 43.8936V44.7827H156.377V45.4759H152.992C152.994 45.3127 152.998 45.0728 152.998 44.7209C152.998 43.6123 152.053 43.0091 151.213 43.0091H147.3C146.614 43.0091 146.284 43.1749 146.098 43.3645V40.5008C146.098 40.5008 145.487 40.9303 145.038 41.2716C144.59 41.6129 145.038 41.8422 145.038 41.8422V45.4759H143.756L143.729 42.3573C143.729 42.3573 142.836 43.0091 142.58 43.2075C142.331 43.405 142.469 43.5814 142.749 43.5814C142.749 43.5814 142.698 45.8842 142.698 46.4275C142.698 46.9743 142.245 47.5987 141.295 47.3147C141.295 47.3147 140.994 47.3729 141.244 47.6005C141.494 47.8271 141.795 48 142.133 48C142.469 48 143.7 47.768 143.7 46.4275H159.837V40.6137C159.837 40.6137 158.888 41.2407 158.692 41.411C158.495 41.5812 158.552 41.7858 158.806 41.7558" fill="#5C0632"/>
</svg>
