<svg width="280" height="60" viewBox="0 0 280 60" fill="none" xmlns="http://www.w3.org/2000/svg">
<rect x="112" width="56.6929" height="60" fill="white"/>
<path d="M112 30V0H140.344H168.688V30V60H140.344H112V30ZM124.704 43.1261C124.988 42.9316 125.191 42.5774 125.204 42.2541C125.216 41.9484 125.162 41.8849 125.007 42.0246C124.942 42.0835 124.745 42.1864 124.569 42.2533C124.287 42.3604 124.085 42.375 122.881 42.375C121.291 42.375 121.291 42.3748 121.188 41.8196C121.095 41.3234 121.105 38.8571 121.2 38.7625C121.314 38.648 122.942 38.663 123.402 38.7828C123.603 38.8352 123.782 38.8641 123.799 38.847C123.847 38.7989 123.52 38.3967 123.291 38.2218C122.961 37.9702 122.578 37.8643 121.844 37.8214L121.156 37.7812L121.117 36.9062C121.096 36.425 121.093 36.0061 121.111 35.9753C121.129 35.9434 121.695 35.9355 122.431 35.9569C123.762 35.9957 124.205 36.0665 124.703 36.3202C125 36.4721 125.076 36.4325 124.985 36.1722C124.876 35.8591 124.386 35.4129 123.965 35.2433C123.598 35.0956 123.562 35.0935 121.135 35.0754C119.782 35.0653 118.685 35.0793 118.697 35.1066C118.709 35.1339 118.829 35.3751 118.964 35.6425C119.2 36.113 119.21 36.1568 119.257 36.9863C119.283 37.4579 119.308 38.9125 119.312 40.2187C119.318 42.6992 119.338 42.9051 119.599 43.1937C119.707 43.3125 119.791 43.3161 122.094 43.299L124.478 43.2812L124.704 43.1261ZM128.187 43.2264C128.187 43.179 128.141 43.1017 128.084 43.0545C128.027 43.0073 127.915 42.8281 127.834 42.6562C127.692 42.3498 127.689 42.3056 127.688 40.3678C127.687 38.434 127.69 38.3882 127.823 38.2193C127.975 38.0264 128.389 37.816 128.621 37.8139C128.92 37.8112 129.297 38.0529 129.434 38.336C129.555 38.5865 129.562 38.7114 129.562 40.4854C129.562 42.501 129.604 42.8915 129.845 43.1516C129.991 43.3092 130.011 43.3125 130.841 43.3125C131.334 43.3125 131.687 43.2877 131.687 43.2531C131.687 43.2205 131.607 43.0728 131.509 42.925C131.199 42.4579 131.187 42.362 131.187 40.3076V38.3839L131.392 38.1669C131.894 37.6343 132.743 37.7879 132.996 38.4572C133.038 38.5672 133.062 39.3332 133.062 40.501C133.062 42.5098 133.107 42.9252 133.348 43.1665C133.487 43.3051 133.537 43.3125 134.341 43.3125C135.036 43.3125 135.187 43.2964 135.187 43.2224C135.187 43.1729 135.16 43.1152 135.126 43.0942C135.092 43.0732 134.986 42.9239 134.891 42.7624L134.719 42.4687L134.687 40.1875C134.653 37.6687 134.661 37.7217 134.227 37.2601C133.851 36.86 133.188 36.6435 132.544 36.7108C132.044 36.7631 131.704 36.9703 131.405 37.4046C131.273 37.5961 131.143 37.7452 131.117 37.7358C131.091 37.7264 131.005 37.6215 130.925 37.5026C130.441 36.7819 129.285 36.4747 128.521 36.8641C128.28 36.987 127.75 37.5163 127.75 37.6338C127.75 37.7721 127.617 37.6636 127.529 37.454C127.414 37.1785 127.222 36.9596 126.987 36.8378C126.807 36.744 125.625 36.7095 125.625 36.798C125.625 36.8244 125.695 36.9484 125.78 37.0736C125.865 37.1988 125.962 37.4233 125.997 37.5725C126.032 37.7265 126.06 38.8376 126.061 40.1442C126.063 42.5801 126.091 42.8775 126.348 43.1547C126.49 43.3085 126.516 43.3125 127.341 43.3125C128.018 43.3125 128.187 43.2953 128.187 43.2264V43.2264ZM138.25 43.2264C138.25 43.179 138.203 43.1017 138.146 43.0545C138.089 43.0073 137.977 42.8281 137.897 42.6562C137.754 42.3487 137.751 42.3108 137.75 40.25C137.749 37.5824 137.683 37.1619 137.22 36.876C137.049 36.7704 136.909 36.75 136.352 36.75C135.987 36.75 135.687 36.7727 135.687 36.8004C135.687 36.8281 135.756 36.9438 135.84 37.0576C136.094 37.402 136.125 37.739 136.125 40.1792C136.125 42.6599 136.163 43.0133 136.453 43.2164C136.644 43.3498 138.25 43.3587 138.25 43.2264V43.2264ZM141.375 43.2584C141.375 43.2287 141.318 43.1322 141.249 43.044C141.18 42.9559 141.068 42.7622 141 42.6137C140.887 42.365 140.878 42.1959 140.876 40.4624C140.875 38.6128 140.877 38.5774 141.016 38.372C141.242 38.0357 141.525 37.9062 142.031 37.9062C142.373 37.9062 142.521 37.9371 142.707 38.0469C142.838 38.1242 142.971 38.1875 143.004 38.1875C143.036 38.1875 143.063 37.9533 143.063 37.6671C143.063 37.2082 143.046 37.1312 142.922 37.0151C142.456 36.5783 141.589 36.7017 141.203 37.2598C140.811 37.8277 140.835 37.8149 140.751 37.499C140.592 36.8969 140.371 36.7526 139.539 36.7095C138.839 36.6731 138.739 36.721 138.936 36.9981C139.229 37.409 139.25 37.617 139.25 40.0694C139.25 42.5161 139.284 42.8832 139.532 43.1516C139.678 43.3092 139.699 43.3125 140.528 43.3125C140.994 43.3125 141.375 43.2882 141.375 43.2584ZM145.214 43.2248C145.329 43.1766 145.539 43.0331 145.68 42.9059L145.936 42.6746L146.003 42.8529C146.04 42.951 146.13 43.0945 146.203 43.1719C146.326 43.304 146.384 43.3125 147.163 43.3125C147.619 43.3125 148.008 43.2876 148.027 43.2571C148.046 43.2266 148.018 43.1656 147.964 43.1214C147.911 43.0773 147.792 42.9124 147.7 42.755L147.531 42.4687L147.5 40.1771L147.469 37.8855L147.28 37.6166C146.865 37.0271 146.244 36.7363 145.407 36.7396C144.806 36.742 144.011 36.9849 143.86 37.2118C143.807 37.2927 143.796 38.0875 143.847 38.1391C143.867 38.1584 144.017 38.0395 144.182 37.8749C144.42 37.6367 144.55 37.5603 144.819 37.5001C145.61 37.323 146.202 37.7881 146.008 38.4347C145.886 38.8439 145.721 38.9761 144.732 39.4598C143.63 39.9986 143.278 40.2765 143.004 40.8243C142.845 41.1419 142.812 41.2821 142.812 41.6434C142.812 41.8831 142.847 42.195 142.889 42.3365C142.988 42.6669 143.399 43.0794 143.755 43.2052C144.108 43.3297 144.936 43.3408 145.214 43.2248L145.214 43.2248ZM144.692 42.4566C144.341 42.2716 144.226 42.0606 144.23 41.6058C144.237 40.9058 144.561 40.3923 145.327 39.8674C145.923 39.4589 145.875 39.3688 145.875 40.8953V42.2415L145.68 42.3807C145.415 42.5689 144.97 42.6031 144.692 42.4566ZM151.277 43.2571C151.296 43.2266 151.267 43.1651 151.213 43.1204C151.159 43.0757 151.04 42.8967 150.948 42.7227L150.781 42.4062L150.762 40.0967C150.751 38.8264 150.759 37.7225 150.779 37.6435C150.811 37.5144 150.851 37.5 151.179 37.5C151.379 37.5 151.68 37.5414 151.848 37.5919C152.016 37.6425 152.177 37.6607 152.205 37.6325C152.233 37.6042 152.248 37.4011 152.238 37.1812L152.219 36.7812L151.566 36.7633C151.207 36.7534 150.878 36.7156 150.834 36.6793C150.781 36.6357 150.748 36.3971 150.737 35.9785L150.719 35.3437L150.565 35.5312C150.114 36.0814 149.42 36.6772 148.854 37C148.523 37.1891 148.251 37.3612 148.251 37.3825C148.25 37.4039 148.444 37.4405 148.682 37.4639C148.999 37.4951 149.125 37.534 149.154 37.6094C149.175 37.666 149.19 38.8106 149.186 40.153C149.179 42.6943 149.197 42.8999 149.447 43.1662C149.578 43.3053 149.625 43.3125 150.413 43.3125C150.87 43.3125 151.258 43.2876 151.277 43.2571L151.277 43.2571ZM156.491 43.1381C157.01 42.9348 157.063 42.8639 157.063 42.369C157.063 42.1295 157.033 41.9265 156.994 41.9026C156.957 41.8794 156.809 41.9749 156.666 42.1147C156.357 42.417 156.037 42.5625 155.681 42.5625C155.068 42.5625 154.608 42.2727 154.348 41.7213C154.031 41.0519 154.142 40.8834 155.27 40.3198C156.414 39.7481 157.06 38.9833 157.062 38.2006C157.063 37.4429 156.493 36.9073 155.503 36.7376C154.649 36.5912 153.846 36.8441 153.253 37.4462C152.638 38.071 152.293 39.0298 152.289 40.125C152.284 41.4561 152.86 42.517 153.864 43.0258C154.344 43.2687 154.58 43.309 155.406 43.2883C155.988 43.2737 156.232 43.24 156.491 43.1381V43.1381ZM154.02 39.4844C154.085 38.2947 154.289 37.5927 154.638 37.3481C154.851 37.1988 155.212 37.2232 155.418 37.401C155.585 37.544 155.594 37.5793 155.593 38.0728C155.593 38.5019 155.564 38.6544 155.431 38.9375C155.258 39.3047 154.885 39.7034 154.434 40.0027C153.984 40.3012 153.975 40.2901 154.02 39.4844ZM160.129 43.2132C161.383 42.8467 162.058 41.6244 161.63 40.4972C161.404 39.9029 161.129 39.6539 159.682 38.7341C159.105 38.3674 158.991 37.9265 159.387 37.5936C159.54 37.4644 159.638 37.4375 159.954 37.4375C160.414 37.4375 160.783 37.5973 161.065 37.9182C161.315 38.2038 161.387 38.1324 161.363 37.6208C161.345 37.2458 161.331 37.2148 161.129 37.0785C160.738 36.8161 160.116 36.6686 159.542 36.7026C158.963 36.7369 158.579 36.8792 158.224 37.191C157.802 37.5616 157.65 38.0235 157.758 38.6059C157.893 39.3413 158.249 39.763 159.255 40.3809C160.203 40.9636 160.44 41.3235 160.221 41.847C160.021 42.3263 159.631 42.5738 159.068 42.579C158.649 42.5828 158.416 42.4738 158.103 42.1266C157.975 41.9855 157.844 41.887 157.81 41.9075C157.74 41.9509 157.73 42.7476 157.798 42.8507C157.823 42.8888 157.935 42.9666 158.046 43.0235C158.599 43.3071 159.521 43.3911 160.129 43.2132H160.129ZM137.379 36.0459C137.5 35.9644 137.628 35.8021 137.681 35.6637C137.935 34.995 137.161 34.377 136.498 34.7198C136.01 34.9719 136.002 35.8278 136.485 36.0897C136.744 36.2303 137.134 36.2112 137.379 36.0459ZM143.623 34.2905C144.996 33.7985 145.917 32.8247 146.219 31.5464C146.288 31.2505 146.311 30.7185 146.312 29.3437L146.312 27.5313L146.134 27.1563C145.954 26.7771 145.159 25.9092 145.052 25.9753C145.023 25.9929 145 26.4153 145 26.9138V27.8203L145.441 28.3202C145.931 28.8773 146 29.0107 146 29.408C146 30.0335 145.557 30.7734 144.634 31.6923C143.907 32.4152 143.353 32.753 142.695 32.8751C142.51 32.9094 141.673 32.9375 140.835 32.9375C139.656 32.9375 139.314 32.9551 139.317 33.0156C139.32 33.0586 139.691 33.4128 140.142 33.8027L140.962 34.5117L142.059 34.4847C143.051 34.4602 143.201 34.4416 143.623 34.2905H143.623ZM138.767 32.7045C138.932 32.6294 139.231 32.4381 139.433 32.2794C139.865 31.9406 140.634 31.0818 140.778 30.7794C140.946 30.4244 141.014 29.8798 140.988 29.0901C140.967 28.4271 140.944 28.2949 140.795 27.9917C140.582 27.5553 139.77 26.7432 139.683 26.8797C139.652 26.9287 139.627 27.3484 139.626 27.8125C139.625 28.7707 139.666 28.8886 140.122 29.2554C140.472 29.5365 140.625 29.8015 140.625 30.1269C140.625 30.4633 140.392 30.8782 140.103 31.0571C139.899 31.1827 139.812 31.1875 137.738 31.1875C135.427 31.1875 135.27 31.1701 134.621 30.8418C133.914 30.4838 133.314 29.8092 133.045 29.0708C132.933 28.7637 132.911 28.5074 132.872 27.0625C132.848 26.1516 132.797 25.3103 132.759 25.1931C132.657 24.8769 132.452 24.6875 132.212 24.6875C131.935 24.6875 131.902 24.7732 132.082 25.0153C132.411 25.4553 132.404 25.4061 132.442 27.6563C132.475 29.6091 132.488 29.8142 132.612 30.1875C133.027 31.4387 134.106 32.4827 135.29 32.7789C135.568 32.8484 135.996 32.8669 137.062 32.8558C138.358 32.8422 138.492 32.8303 138.767 32.7045V32.7045ZM142.36 31.4811C143.212 30.7066 143.373 30.5301 143.563 30.1595L143.781 29.7318L143.813 27.9504L143.844 26.1691L144.75 25.3042C145.248 24.8285 145.686 24.4389 145.722 24.4384C145.758 24.4379 145.822 24.6066 145.865 24.8133C145.956 25.2546 146.206 25.5803 146.538 25.6899C146.99 25.839 147.203 25.7165 148.273 24.692C148.81 24.1772 148.999 23.8064 148.999 23.2625C149 22.599 148.744 22.3125 148.151 22.3125C147.761 22.3125 147.438 22.482 146.813 23.0145L146.301 23.4507L146.099 23.2555C145.989 23.1481 145.879 23.0795 145.855 23.1031C145.832 23.1266 145.812 23.3215 145.812 23.5361C145.812 23.8964 145.797 23.939 145.618 24.0905C145.247 24.4026 145.104 24.4433 144.452 24.4241L143.844 24.4062L143.849 23.7187C143.856 22.7981 143.959 22.5597 144.609 21.9559C144.979 21.6118 145.076 21.4882 145.02 21.4323C144.877 21.2899 144.646 21.4438 143.719 22.2974C142.747 23.192 142.548 23.4537 142.344 24.1011L142.243 24.4236L140.668 24.4673C139.802 24.4913 138.123 24.5015 136.937 24.4899C134.859 24.4695 134.772 24.4638 134.525 24.3318C134.385 24.2565 134.177 24.0898 134.064 23.9613C133.676 23.5193 133.662 23.442 133.626 21.625C133.595 20.0154 133.589 19.9599 133.437 19.6562C133.286 19.3534 133.272 19.3432 132.984 19.3247C132.821 19.3142 132.687 19.324 132.687 19.3463C132.687 19.3687 132.74 19.4616 132.804 19.5528C133.156 20.0536 133.154 20.0407 133.191 21.875C133.224 23.5456 133.23 23.6077 133.398 24.0937C133.761 25.1458 134.332 25.7971 135.135 26.0787C135.28 26.1292 136.401 26.162 138.781 26.1852L142.219 26.2187V28.5625V30.9062L142.052 31.1875C141.961 31.3422 141.686 31.6463 141.443 31.8633C141.199 32.0803 141 32.2843 141 32.3164C141 32.3486 141.085 32.375 141.188 32.375C141.342 32.375 141.552 32.2152 142.36 31.4811L142.36 31.4811ZM147.406 24.5695C147.104 24.3802 146.605 23.8336 146.656 23.7496C146.72 23.6463 147.087 23.5 147.282 23.5C147.557 23.5 147.79 23.665 147.899 23.9364C148.026 24.2559 148.027 24.4637 147.902 24.5893C147.773 24.7185 147.635 24.713 147.406 24.5694V24.5695ZM135.513 29.4899C135.65 29.3812 135.9 29.1266 136.069 28.9241C136.548 28.3487 136.499 28.1338 135.721 27.3803L135.242 26.9168L134.652 27.504C134.328 27.827 134.062 28.1094 134.062 28.1316C134.062 28.1538 134.248 28.3792 134.475 28.6324C134.702 28.8857 134.956 29.2267 135.039 29.3902C135.122 29.5537 135.206 29.6875 135.226 29.6875C135.247 29.6875 135.376 29.5986 135.513 29.4899V29.4899ZM138.231 29.2344C139.043 28.4489 139.057 28.2579 138.36 27.5236C138.114 27.2654 137.861 27.026 137.797 26.9916C137.698 26.9388 137.593 27.0142 137.121 27.4759C136.814 27.7766 136.562 28.0632 136.562 28.1127C136.562 28.1623 136.732 28.3841 136.939 28.6057C137.147 28.8273 137.403 29.1614 137.508 29.3481C137.613 29.5348 137.714 29.6875 137.731 29.6875C137.749 29.6875 137.974 29.4836 138.231 29.2344V29.2344ZM139.397 23.3517C139.664 23.2399 140.864 22.0405 140.976 21.7733C141.083 21.5165 141.094 20.0324 140.993 19.55C140.909 19.153 140.642 18.5932 140.339 18.181C140.142 17.9131 140.127 17.8641 140.196 17.7368C140.241 17.654 140.285 17.2715 140.301 16.8281C140.316 16.407 140.344 16.0625 140.364 16.0625C140.383 16.0625 140.479 16.1385 140.576 16.2314L140.752 16.4003L141.126 16.0302C141.443 15.7168 141.5 15.6264 141.5 15.4395C141.5 15.1813 141.351 14.9191 140.935 14.4402C140.635 14.0955 140.314 13.5055 140.313 13.2969C140.312 13.0902 140.091 13.1867 139.74 13.5469C139.547 13.7445 139.358 13.9677 139.32 14.0428C139.159 14.3576 139.288 14.8332 139.68 15.3747C139.875 15.6437 139.875 15.6438 139.875 16.473C139.875 17.3033 139.849 17.5 139.741 17.5C139.71 17.5 139.495 17.3728 139.264 17.2172C138.633 16.7924 138.223 16.6875 137.192 16.6875C136.16 16.6875 135.844 16.7669 135.328 17.1549C134.812 17.5426 134.608 17.8561 134.575 18.3109C134.56 18.5108 134.58 18.7695 134.618 18.8859C134.703 19.1411 135.598 20.0553 135.677 19.9664C135.706 19.9333 135.708 19.6391 135.681 19.3125C135.605 18.3878 135.695 17.6375 135.914 17.3774C136.155 17.0907 136.432 17.0677 136.796 17.304C137.281 17.6183 138.469 18.6529 138.469 18.7613C138.469 18.9021 136.039 21.4549 135.751 21.6169C135.442 21.7905 135.011 21.7942 134.795 21.625C134.523 21.4105 134.5 21.4519 134.5 22.1622C134.5 22.9299 134.57 23.0854 135.015 23.3056C135.269 23.4312 135.374 23.4374 137.236 23.4374C138.752 23.4375 139.238 23.4182 139.397 23.3517L139.397 23.3517ZM136.294 21.8352C136.243 21.7843 138.804 19.125 138.904 19.125C138.993 19.125 139.649 19.8471 140.145 20.4896C140.581 21.0552 140.689 21.3611 140.537 21.5937C140.479 21.6827 140.36 21.7824 140.274 21.8153C140.101 21.8809 136.358 21.8996 136.294 21.8352V21.8352ZM142.266 22.5092C143.187 21.6792 143.393 21.4388 143.638 20.9062C143.779 20.5978 143.782 20.5552 143.813 17.6562L143.844 14.7187L144.019 14.3623C144.134 14.1277 144.342 13.8684 144.628 13.6037C144.867 13.3825 145.063 13.1703 145.063 13.132C145.063 13.0938 144.985 13.0628 144.891 13.0632C144.63 13.0641 142.78 14.7509 142.551 15.1968C142.279 15.7281 142.25 16.0916 142.25 19.0323C142.25 22.247 142.296 22.0202 141.5 22.7426C141.224 22.9926 141.015 23.2232 141.034 23.2549C141.054 23.2866 141.139 23.3125 141.222 23.3125C141.33 23.3125 141.638 23.0756 142.266 22.5092V22.5092Z" fill="#D71A21"/>
</svg>
