<svg width="188" height="33" viewBox="0 0 188 33" fill="none" xmlns="http://www.w3.org/2000/svg">
<path d="M0.05 1.55H10.655C16.3717 1.55 19.23 3.48667 19.23 7.36C19.23 8.83 19.0667 9.96167 18.74 10.755C18.4367 11.5483 17.795 12.295 16.815 12.995C17.9583 13.485 18.74 14.0917 19.16 14.815C19.6033 15.515 19.825 16.6933 19.825 18.35C19.825 22.7833 16.815 25 10.795 25H0.05V1.55ZM10.06 15.725H8.17V19.575H10.06C10.8767 19.575 11.425 19.4467 11.705 19.19C11.985 18.91 12.125 18.4083 12.125 17.685C12.125 16.9383 11.9733 16.425 11.67 16.145C11.3667 15.865 10.83 15.725 10.06 15.725ZM9.955 6.905H8.17V10.65H9.99C10.69 10.65 11.18 10.4983 11.46 10.195C11.74 9.89167 11.88 9.41333 11.88 8.76C11.88 8.08333 11.7283 7.605 11.425 7.325C11.1217 7.045 10.6317 6.905 9.955 6.905ZM23.0948 9.075C24.6581 7.605 27.0031 6.87 30.1298 6.87C33.2564 6.87 35.5898 7.605 37.1298 9.075C38.6931 10.5217 39.4748 12.89 39.4748 16.18C39.4748 19.47 38.6931 21.8383 37.1298 23.285C35.5898 24.7317 33.2564 25.455 30.1298 25.455C27.0031 25.455 24.6581 24.7317 23.0948 23.285C21.5548 21.8383 20.7848 19.47 20.7848 16.18C20.7848 12.89 21.5548 10.5217 23.0948 9.075ZM29.0098 18.49C29.2198 18.91 29.5931 19.12 30.1298 19.12C30.6664 19.12 31.0398 18.91 31.2498 18.49C31.4598 18.07 31.5648 17.3 31.5648 16.18C31.5648 15.0367 31.4598 14.255 31.2498 13.835C31.0398 13.415 30.6664 13.205 30.1298 13.205C29.5931 13.205 29.2198 13.415 29.0098 13.835C28.7998 14.255 28.6948 15.0367 28.6948 16.18C28.6948 17.3 28.7998 18.07 29.0098 18.49ZM42.8506 9.075C44.414 7.605 46.759 6.87 49.8856 6.87C53.0123 6.87 55.3456 7.605 56.8856 9.075C58.449 10.5217 59.2306 12.89 59.2306 16.18C59.2306 19.47 58.449 21.8383 56.8856 23.285C55.3456 24.7317 53.0123 25.455 49.8856 25.455C46.759 25.455 44.414 24.7317 42.8506 23.285C41.3106 21.8383 40.5406 19.47 40.5406 16.18C40.5406 12.89 41.3106 10.5217 42.8506 9.075ZM48.7656 18.49C48.9756 18.91 49.349 19.12 49.8856 19.12C50.4223 19.12 50.7956 18.91 51.0056 18.49C51.2156 18.07 51.3206 17.3 51.3206 16.18C51.3206 15.0367 51.2156 14.255 51.0056 13.835C50.7956 13.415 50.4223 13.205 49.8856 13.205C49.349 13.205 48.9756 13.415 48.7656 13.835C48.5556 14.255 48.4506 15.0367 48.4506 16.18C48.4506 17.3 48.5556 18.07 48.7656 18.49ZM68.5915 25H60.7515V0.849998H68.5915V12.995H69.6065L71.1815 7.325H78.9165L76.3965 15.865L79.1265 25H71.2865L69.6415 19.82H68.5915V25ZM80.0972 25V7.325H87.9372V25H80.0972ZM80.0622 6.205V0.849998H87.9722V6.205H80.0622ZM97.7468 25H89.9068V7.325H97.7118V8.235C99.1818 7.325 100.465 6.87 101.562 6.87C104.082 6.87 105.843 7.55833 106.847 8.935C107.85 10.2883 108.352 12.6917 108.352 16.145V25H100.512V16.67C100.512 14.64 100.092 13.625 99.2518 13.625L97.7468 13.87V25ZM112.381 31.86C110.514 31.2533 109.581 29.9117 109.581 27.835C109.581 26.995 109.744 26.2483 110.071 25.595C110.398 24.9417 110.981 24.2883 111.821 23.635C110.981 23.0517 110.561 22.1767 110.561 21.01C110.561 20.7533 110.724 20.415 111.051 19.995C111.401 19.5517 111.751 19.19 112.101 18.91L112.591 18.455C110.701 17.5683 109.756 15.8883 109.756 13.415C109.756 10.9417 110.421 9.23833 111.751 8.305C113.104 7.34833 115.333 6.87 118.436 6.87C119.206 6.87 120.221 6.96333 121.481 7.15L122.041 7.255L128.516 7.15V11.735H126.871C127.081 12.3183 127.186 12.7967 127.186 13.17C127.186 15.69 126.544 17.3817 125.261 18.245C123.978 19.085 121.796 19.505 118.716 19.505C118.249 19.505 117.806 19.47 117.386 19.4C117.293 19.54 117.246 19.68 117.246 19.82C117.246 20.0533 118.623 20.17 121.376 20.17C124.129 20.17 125.984 20.5783 126.941 21.395C127.921 22.2117 128.411 23.6933 128.411 25.84C128.411 28.01 127.618 29.69 126.031 30.88C124.444 32.0933 122.181 32.7 119.241 32.7C116.301 32.7 114.014 32.42 112.381 31.86ZM115.986 26.855C115.986 27.1583 116.873 27.31 118.646 27.31C120.419 27.31 121.306 27.1233 121.306 26.75C121.306 26.5167 121.154 26.365 120.851 26.295C120.548 26.2483 119.929 26.225 118.996 26.225L116.301 26.085C116.091 26.2017 115.986 26.4583 115.986 26.855ZM117.421 14.115C117.631 14.3017 117.981 14.395 118.471 14.395C118.961 14.395 119.311 14.3017 119.521 14.115C119.731 13.9283 119.836 13.6017 119.836 13.135C119.836 12.6683 119.731 12.3417 119.521 12.155C119.311 11.9683 118.961 11.875 118.471 11.875C117.981 11.875 117.631 11.9683 117.421 12.155C117.211 12.3417 117.106 12.6683 117.106 13.135C117.106 13.6017 117.211 13.9283 117.421 14.115ZM141.274 6.87C143.748 6.87 145.521 7.66333 146.594 9.25C147.668 10.8367 148.204 13.205 148.204 16.355C148.204 19.4817 147.609 21.78 146.419 23.25C145.253 24.72 143.281 25.455 140.504 25.455C139.944 25.455 139.151 25.3383 138.124 25.105L137.634 25V31.825H129.794V7.325H137.529L137.599 8.235C138.743 7.325 139.968 6.87 141.274 6.87ZM138.754 19.12C139.781 19.12 140.294 18.0933 140.294 16.04C140.294 14.9433 140.178 14.1967 139.944 13.8C139.711 13.4033 139.314 13.205 138.754 13.205L137.634 13.45V19.015C137.938 19.085 138.311 19.12 138.754 19.12ZM166.905 13.03V19.68C167.115 19.8433 167.395 19.9717 167.745 20.065L167.64 25.035C165.82 25.315 164.572 25.455 163.895 25.455C163.219 25.455 162.6 25.35 162.04 25.14C161.48 24.9533 161.107 24.755 160.92 24.545L160.64 24.23C159.194 25.0467 157.432 25.455 155.355 25.455C153.302 25.455 151.75 24.9883 150.7 24.055C149.65 23.0983 149.125 21.57 149.125 19.47C149.125 17.37 149.72 15.97 150.91 15.27C152.1 14.5467 153.979 14.1383 156.545 14.045L159.065 13.94V13.625C159.065 13.1817 158.575 12.96 157.595 12.96C155.472 12.96 153.349 13.0767 151.225 13.31L150.07 13.415L149.895 8.095C152.975 7.27833 155.787 6.87 158.33 6.87C160.99 6.87 163.055 7.26667 164.525 8.06C166.112 8.9 166.905 10.5567 166.905 13.03ZM157.735 20.065C158.179 20.065 158.622 19.89 159.065 19.54V18.245L157.875 18.315C157.269 18.3617 156.965 18.665 156.965 19.225C156.965 19.785 157.222 20.065 157.735 20.065ZM187.228 0.849998V25H179.493L179.423 24.23C178.139 25.0467 176.914 25.455 175.748 25.455C173.181 25.455 171.384 24.6733 170.358 23.11C169.331 21.5233 168.818 19.2133 168.818 16.18C168.818 9.97333 171.396 6.87 176.553 6.87L179.388 7.08V0.849998H187.228ZM178.268 13.205C177.638 13.205 177.218 13.4617 177.008 13.975C176.821 14.4883 176.728 15.2233 176.728 16.18C176.728 17.1133 176.833 17.8367 177.043 18.35C177.253 18.8633 177.673 19.12 178.303 19.12L179.388 19.015V13.31C178.874 13.24 178.501 13.205 178.268 13.205Z" fill="#202020"/>
</svg>
