<svg width="280" height="60" viewBox="0 0 280 60" fill="none" xmlns="http://www.w3.org/2000/svg">
<path d="M235.73 38.8648L239.977 45.9234C241.294 48.0389 243.463 48.9989 246.166 48.9989H257.094L244.301 33.4953L242.486 32.4617L237.696 34.0247L235.269 37.5369L235.73 38.8648Z" fill="url(#paint0_linear)"/>
<path d="M244.301 33.4953L241.63 30.2578L234.571 34.0547L235.32 37.8872L235.73 38.8648C235.569 36.2674 240.029 33.2517 244.301 33.4953V33.4953Z" fill="url(#paint1_linear)"/>
<path d="M235.73 38.8648L231.911 32.55C231.45 31.8336 231.324 31.2068 231.324 30.4765C231.324 29.6733 231.667 29.2328 232.982 28.5354C234.514 27.8019 237.598 27.4829 240.778 27.4829C245.944 27.4829 247.183 29.141 247.71 30.9303C247.71 30.9303 246.981 30.6404 245.265 30.6404C239.822 30.6404 235.471 33.2825 235.471 37.283C235.471 38.1225 235.73 38.8648 235.73 38.8648V38.8648Z" fill="url(#paint2_linear)"/>
<path d="M219.326 12H224.463C226.629 12 227.518 12.8863 228.395 13.7558C229.398 14.6677 232.44 18.7853 238.871 26.822H231.911C229.064 26.822 228.164 26.337 227.063 24.6582L219.326 12Z" fill="url(#paint3_linear)"/>
<path d="M260.292 47.3274L260.665 48.6633H260.671L261.049 47.3274H261.365L261.61 49H261.357L261.183 47.6354H261.178L260.788 49H260.517L260.138 47.6409H260.134L259.96 49H259.719L259.962 47.3274H260.292ZM259.505 47.3274V47.5423H259.013V49H258.769V47.5423H258.276V47.3274H259.505V47.3274Z" fill="#334357"/>
<path d="M138.953 26.8324H138.895L135.972 35.0967H141.883L138.953 26.8324ZM144.185 41.6076L142.754 37.548H135.1L133.665 41.6076H130.398L137.254 23.5379H140.895L147.645 41.6076H144.185V41.6076ZM171.917 22.8139H175.113V25.8346H171.917V22.8139ZM171.952 27.8439H175.076V41.6076H171.952V27.8439V27.8439ZM148.89 22.8125H152.087V25.8346H148.89V22.8125ZM148.927 27.8439H152.05V41.6076H148.927V27.8439V27.8439ZM168.543 22.8303H165.42V41.6076H168.543V22.8303V22.8303ZM158.587 34.8955V41.6076H155.454V31.3806C155.454 30.3979 155.342 28.5269 155.303 27.8466H157.826C158.098 27.8466 158.176 27.9616 158.185 28.2299C158.19 28.6364 158.212 29.9353 158.212 29.9353H158.283C158.529 29.3399 159.418 27.5578 162.013 27.5578C162.882 27.5578 163.525 27.8384 163.631 27.8808C163.631 28.4735 163.569 29.7738 163.538 30.1173C163.518 30.3431 163.42 30.4171 163.308 30.4171C163.201 30.4171 163.152 30.3924 163.093 30.3691C162.898 30.287 162.444 30.1488 161.813 30.1488C160.146 30.1488 158.587 31.3519 158.587 34.8955V34.8955ZM187.034 41.6076V32.7192C187.034 31.022 186.259 29.9873 184.806 29.9873C182.884 29.9873 181.609 32.0321 181.609 34.7914V41.6076H178.484V31.497C178.484 30.3842 178.383 28.7623 178.331 27.8466H180.841C181.124 27.8466 181.205 27.963 181.208 28.2175C181.216 28.5118 181.24 29.9353 181.24 29.9353H181.312C181.688 29.2879 182.65 27.5565 185.53 27.5565C188.499 27.5565 190.158 29.5862 190.158 31.8651V41.6076H187.034V41.6076ZM195.679 33.3119H201.46C201.579 31.0932 200.415 29.8504 198.657 29.8504C196.818 29.8504 195.762 31.1808 195.679 33.3119V33.3119ZM203.386 38.5855C203.56 38.5855 203.611 38.7374 203.624 38.8935C203.678 39.4806 203.728 40.8083 203.72 41.1464C203.386 41.2531 201.707 41.8704 199.451 41.8704C195.07 41.8704 192.434 39.6038 192.434 34.7244C192.434 30.5348 194.681 27.5578 198.722 27.5578C202.688 27.5578 204.574 30.2104 204.574 33.5035C204.574 33.8908 204.532 34.5451 204.463 35.4142H195.639C195.639 37.7643 197.137 39.4505 199.904 39.4505C201.429 39.4505 202.642 38.9044 203.123 38.6717C203.219 38.6252 203.275 38.5855 203.386 38.5855V38.5855ZM210.703 41.8704C214.77 41.8704 216.716 40.2074 216.716 37.7355C216.716 35.302 214.987 34.2782 213.156 33.6732C212.63 33.5035 212.116 33.331 211.635 33.1695C210.382 32.7548 209.731 32.2101 209.731 31.397C209.731 30.5389 210.514 29.938 212.14 29.938C213.586 29.938 214.767 30.5279 215.235 30.7538C215.313 30.7893 215.383 30.84 215.507 30.84C215.606 30.84 215.728 30.7784 215.744 30.5348C215.776 30.0735 215.83 29.2372 215.83 28.4338C215.451 28.26 214.084 27.5578 211.884 27.5578C208.524 27.5578 206.459 29.3057 206.459 31.6119C206.459 33.8484 207.988 34.8695 209.67 35.4265C210.057 35.5579 210.776 35.7933 211.196 35.9357C212.952 36.5188 213.453 37.0484 213.453 37.8697C213.453 38.9414 212.311 39.4711 210.347 39.4711C208.736 39.4711 207.629 38.8798 207.184 38.6717C207.094 38.632 207.041 38.5855 206.916 38.5855C206.685 38.5855 206.681 38.8935 206.678 38.9441C206.668 39.0919 206.594 40.5181 206.594 40.9931C206.963 41.1518 208.559 41.8704 210.703 41.8704V41.8704ZM26.5544 26.8324H26.4969L23.572 35.0967H29.4794L26.5544 26.8324ZM31.7856 41.6076L30.3526 37.548H22.6988L21.2657 41.6076H18L24.8559 23.5366H28.4939L35.2444 41.6076H31.7856V41.6076ZM82.8371 22.8125H86.0317V25.8332H82.8371V22.8125ZM82.8741 27.8439H85.9947V41.6076H82.8741V27.8439ZM76.1674 34.8955V41.6076H73.0399V31.3806C73.0399 30.3965 72.9277 28.5255 72.8866 27.8439H75.4105C75.6829 27.8439 75.7636 27.9616 75.765 28.2285C75.7732 28.6336 75.7978 29.9353 75.7978 29.9353H75.8676C76.1154 29.3399 77.0009 27.5578 79.5974 27.5578C80.4638 27.5578 81.1125 27.837 81.2193 27.8795C81.2193 28.4721 81.155 29.7724 81.1249 30.1173C81.1043 30.3418 81.0044 30.4143 80.8935 30.4143C80.7882 30.4143 80.7348 30.3924 80.6773 30.3691C80.4802 30.2857 80.0272 30.1474 79.4017 30.1474C77.7332 30.1474 76.1674 31.3519 76.1674 34.8955V34.8955ZM53.0951 41.6076V32.8013C53.0951 31.215 52.4244 29.9845 50.8052 29.9845C48.9821 29.9845 47.9309 31.9801 47.9309 34.775V41.6076H44.8089V32.774C44.8089 31.3313 44.2067 29.9845 42.5314 29.9845C40.6822 29.9845 39.6475 31.976 39.6475 34.8736V41.6076H36.5186V31.5832C36.5186 30.2884 36.4037 28.4571 36.3667 27.8439H38.8673C39.1493 27.8439 39.2424 27.937 39.2478 28.2285C39.2547 28.5939 39.2766 29.9353 39.2766 29.9353H39.3478C39.538 29.5424 40.5659 27.5565 43.4347 27.5565C46.1078 27.5565 47.1302 29.474 47.3834 30.0653C47.6298 29.5452 48.8165 27.5565 51.5087 27.5565C54.3091 27.5565 56.2198 29.0593 56.2198 32.0787V41.6076H53.0951V41.6076ZM61.7371 33.3091H67.5199C67.639 31.0946 66.4783 29.849 64.7168 29.849C62.8772 29.849 61.8247 31.1808 61.7371 33.3091ZM69.4484 38.5855C69.6195 38.5855 69.6715 38.7374 69.6852 38.8935C69.7386 39.4806 69.7892 40.8097 69.781 41.1464C69.4484 41.2531 67.769 41.8704 65.5134 41.8704C61.1308 41.8704 58.4946 39.6011 58.4946 34.7216C58.4946 30.5375 60.7407 27.5578 64.7852 27.5578C68.7476 27.5578 70.6378 30.209 70.6378 33.5035C70.6378 33.8908 70.594 34.5451 70.5242 35.4115H61.7001C61.7001 37.7643 63.1989 39.4505 65.9623 39.4505C67.4884 39.4505 68.7038 38.9044 69.1842 38.669C69.2801 38.6225 69.3348 38.5855 69.4484 38.5855V38.5855ZM108.637 34.6245H108.106C104.181 34.6245 103.409 35.9891 103.409 37.3756C103.409 38.5089 104.156 39.5819 105.623 39.5819C107.572 39.5819 108.637 37.7 108.637 35.7194V34.6245V34.6245ZM109.39 41.6076C109.138 41.6076 108.929 41.5241 108.901 41.1587C108.871 40.7097 108.81 39.8406 108.81 39.8406H108.767C108.583 40.0938 107.444 41.8704 104.585 41.8704C101.846 41.8704 100.274 39.7599 100.274 37.4426C100.274 34.2303 103.394 32.6166 108.021 32.6166H108.637V32.1115C108.637 30.6703 107.612 29.8983 105.696 29.8983C103.971 29.8983 102.54 30.5033 101.983 30.7866C101.946 30.8044 101.844 30.8632 101.751 30.8632C101.603 30.8632 101.52 30.7715 101.512 30.6087C101.487 30.0913 101.434 29.0962 101.426 28.4653C101.989 28.2504 103.859 27.5565 105.916 27.5565C110.006 27.5565 111.762 29.4548 111.762 32.4865V37.8532C111.762 39.8105 111.944 41.0916 112.008 41.6076H109.39V41.6076ZM98.5923 38.5855C98.6744 38.5855 98.7908 38.6403 98.8182 38.8811C98.8784 39.5368 98.903 40.6098 98.9058 40.9465C98.2816 41.2545 96.9293 41.8704 95.2705 41.8704C91.1014 41.8704 88.5446 39.4505 88.5446 34.7162C88.5446 30.2802 90.8181 27.5578 95.2705 27.5578C96.7473 27.5578 98.1064 28.0725 98.9058 28.4831C98.9058 28.9731 98.8579 30.0831 98.8182 30.5498C98.799 30.7455 98.7046 30.84 98.5923 30.84C98.4678 30.84 98.4253 30.8071 98.3514 30.7743C97.3454 30.2815 96.3997 30.0434 95.5483 30.0434C92.8944 30.0434 91.8022 31.7803 91.8022 34.7162C91.8022 37.3331 92.6754 39.3848 95.5483 39.3848C96.646 39.3848 97.6465 38.9934 98.2666 38.695C98.4336 38.617 98.4623 38.5855 98.5923 38.5855V38.5855ZM123.017 41.6076V32.7192C123.017 31.0207 122.242 29.9859 120.791 29.9859C118.868 29.9859 117.59 32.0294 117.59 34.7914V41.6076H114.468V31.497C114.468 30.3842 114.367 28.7623 114.317 27.8439H116.824C117.11 27.8439 117.192 27.963 117.193 28.2175C117.2 28.5091 117.223 29.9353 117.223 29.9353H117.292C117.672 29.2865 118.633 27.5551 121.513 27.5551C124.486 27.5551 126.144 29.5862 126.144 31.8624V41.6076H123.017V41.6076Z" fill="#334357"/>
<defs>
<linearGradient id="paint0_linear" x1="235.26" y1="33.6307" x2="235.26" y2="48.9601" gradientUnits="userSpaceOnUse">
<stop stop-color="#EB2023"/>
<stop offset="0.096269" stop-color="#E92026"/>
<stop offset="0.203864" stop-color="#E31E27"/>
<stop offset="0.298638" stop-color="#E01E26"/>
<stop offset="0.404297" stop-color="#D81F27"/>
<stop offset="0.5" stop-color="#CF2027"/>
<stop offset="0.6" stop-color="#C62127"/>
<stop offset="0.7" stop-color="#B92025"/>
<stop offset="0.8" stop-color="#AE1F23"/>
<stop offset="0.9" stop-color="#A01D22"/>
<stop offset="1" stop-color="#901C1C"/>
</linearGradient>
<linearGradient id="paint1_linear" x1="235.685" y1="38.8395" x2="244.203" y2="33.3848" gradientUnits="userSpaceOnUse">
<stop stop-color="#6C221F"/>
<stop offset="0.249132" stop-color="#7F2620"/>
<stop offset="0.498264" stop-color="#982B24"/>
<stop offset="0.749132" stop-color="#B53125"/>
<stop offset="1" stop-color="#CB3327"/>
</linearGradient>
<linearGradient id="paint2_linear" x1="235.017" y1="37.3702" x2="247.495" y2="30.1509" gradientUnits="userSpaceOnUse">
<stop stop-color="#E7EBEE"/>
<stop offset="0.249132" stop-color="#DFE4E8"/>
<stop offset="0.498264" stop-color="#CAD1D7"/>
<stop offset="0.749132" stop-color="#A8B5BD"/>
<stop offset="1" stop-color="#93A6AD"/>
</linearGradient>
<linearGradient id="paint3_linear" x1="227.94" y1="12.0045" x2="227.94" y2="26.8136" gradientUnits="userSpaceOnUse">
<stop stop-color="#05AEE9"/>
<stop offset="0.096269" stop-color="#00A9E0"/>
<stop offset="0.203864" stop-color="#07A3DC"/>
<stop offset="0.298638" stop-color="#089DD5"/>
<stop offset="0.404297" stop-color="#0A92CC"/>
<stop offset="0.5" stop-color="#0F87C3"/>
<stop offset="0.6" stop-color="#127CB8"/>
<stop offset="0.7" stop-color="#0E70AD"/>
<stop offset="0.8" stop-color="#0F63A3"/>
<stop offset="0.9" stop-color="#135393"/>
<stop offset="1" stop-color="#184485"/>
</linearGradient>
</defs>
</svg>
