<svg width="280" height="60" viewBox="0 0 280 60" fill="none" xmlns="http://www.w3.org/2000/svg">
<path d="M158.669 15.5933C157.223 17.7437 155.634 20.4308 153.888 23.8727C152.128 27.3372 150.54 30.8876 149.556 33.5882H155.428C155.788 32.4628 156.225 31.3238 156.688 30.2548H166.337C166.804 31.3193 167.217 32.3916 167.6 33.5882H173.474C172.429 30.8819 170.909 27.3553 169.153 23.8942C167.403 20.4477 165.834 17.7482 164.36 15.5933H158.669ZM161.509 19.8454C162.72 22.015 163.807 24.2151 165.017 26.9236H158.009C159.19 24.2682 160.278 22.0692 161.509 19.8454ZM116.572 15.5933C116.285 18.3539 116.138 21.641 116.138 24.5891C116.138 27.5146 116.283 30.4582 116.575 33.5882H122.141C121.902 31.2594 121.784 29.2638 121.705 26.9078H127.306C127.714 27.3587 128.383 28.2163 129.086 29.3271C129.904 30.613 130.536 31.8797 131.239 33.5882H137.462C136.645 32.03 135.76 30.6232 134.43 28.7474C133.669 27.6773 132.951 26.8072 132.292 26.1552C134.626 25.3349 136.07 23.3642 136.07 20.9686C136.07 19.5991 135.579 18.303 134.725 17.4081C133.51 16.1527 131.624 15.5933 128.605 15.5933H116.572V15.5933ZM121.872 18.9641H126.769C128.571 18.9641 129.448 19.1844 130.008 19.781C130.342 20.1155 130.54 20.65 130.54 21.2127C130.54 22.1834 130.04 23.0421 129.162 23.58H121.702C121.705 22.25 121.762 20.7347 121.872 18.9641V18.9641ZM94.3234 15.5933C94.0579 18.4454 93.8861 21.6726 93.8861 24.6004C93.8861 27.5146 94.0805 30.7147 94.3245 33.5905H111.497C111.408 32.3905 111.338 31.2955 111.274 30.0017H99.5846C99.4942 28.6536 99.4524 27.4118 99.4501 26.2004H110.234V22.806H99.4501C99.4501 21.8195 99.484 20.3776 99.5835 19.181H111.26C111.317 17.9188 111.387 16.8589 111.501 15.5933H94.3234ZM69.8153 15.5933C69.5294 18.2815 69.3791 21.6692 69.3791 24.5891C69.3791 27.5146 69.5124 30.378 69.8153 33.5882H80.4269C84.1818 33.5882 86.4938 33.1532 87.9288 32.1724C89.0351 31.413 89.7199 29.9045 89.7199 28.2333C89.7199 26.2671 88.5967 24.6964 86.626 23.893C87.9368 23.1563 88.7707 21.7381 88.7707 20.2048C88.7707 18.7844 88.3605 17.8002 87.4396 17.0182C85.8926 15.7018 83.0564 15.5933 80.0405 15.5933H69.8153ZM75.1126 18.998H79.8212C81.7241 18.998 82.358 19.1426 82.9027 19.6906C83.1818 19.9731 83.3479 20.4692 83.3479 21.0206C83.3479 21.7822 83.0417 22.4376 82.4823 22.8693H74.9465C74.9646 21.5235 75.0188 20.2714 75.1126 18.998V18.998ZM74.942 26.1293H81.7196C82.7004 26.1293 83.1999 26.2626 83.6394 26.6366C84.0508 26.988 84.2417 27.4231 84.2417 28.0129C84.2417 28.6322 84.0621 29.1147 83.6937 29.4808C83.166 29.9757 82.4225 30.187 81.1241 30.187H75.1126C74.994 28.7553 74.9476 27.3124 74.942 26.1293ZM141.541 15.5945C141.256 18.1697 141.094 21.5641 141.101 24.7439C141.108 27.7914 141.229 30.7226 141.541 33.5882H146.332C146.656 30.7373 146.762 27.7982 146.77 24.7428C146.779 21.5698 146.597 18.146 146.336 15.5945H141.541V15.5945ZM58.4386 15.5945C58.1539 18.1697 57.9934 21.5641 58.0002 24.7439C58.007 27.7914 58.1268 30.7226 58.4386 33.5882H63.2331C63.5552 30.7373 63.6614 27.7982 63.6704 24.7428C63.6784 21.5698 63.4976 18.146 63.2354 15.5945H58.4386V15.5945Z" fill="url(#paint0_linear)"/>
<path d="M181.941 39.4596L173.481 47.9989V48C202.848 48 209.771 41.0958 213.811 31.6978L217.203 22.8512C207.309 23.1359 192.379 28.9678 181.941 39.4596" fill="url(#paint1_linear)"/>
<path d="M201.667 19.4861L192.148 29.1282C201.186 22.6365 210.198 18.7199 219.177 17.7086L221.366 12C208.074 12 206.264 14.9063 201.667 19.4861" fill="url(#paint2_linear)"/>
<defs>
<linearGradient id="paint0_linear" x1="115.737" y1="47.5881" x2="115.737" y2="16.1579" gradientUnits="userSpaceOnUse">
<stop stop-color="#A61C22"/>
<stop offset="0.8" stop-color="#DA1C2D"/>
<stop offset="1" stop-color="#DA1C2D"/>
</linearGradient>
<linearGradient id="paint1_linear" x1="174.928" y1="50.5079" x2="218.609" y2="25.2884" gradientUnits="userSpaceOnUse">
<stop stop-color="#A61C22"/>
<stop offset="0.5" stop-color="#DC1C2E"/>
<stop offset="1" stop-color="#DC1C2E"/>
</linearGradient>
<linearGradient id="paint2_linear" x1="191.789" y1="28.506" x2="221.12" y2="11.572" gradientUnits="userSpaceOnUse">
<stop stop-color="#ED7417"/>
<stop offset="0.85" stop-color="#FACD08"/>
<stop offset="1" stop-color="#FACD08"/>
</linearGradient>
</defs>
</svg>
